<?xml version="1.0" standalone="no"?><!DOCTYPE svg PUBLIC "-//W3C//DTD SVG 1.1//EN" "http://www.w3.org/Graphics/SVG/1.1/DTD/svg11.dtd"><svg t="1688835984034" class="icon" viewBox="0 0 1024 1024" version="1.1" xmlns="http://www.w3.org/2000/svg" p-id="24059" xmlns:xlink="http://www.w3.org/1999/xlink" width="200" height="200"><path d="M662.357333 512l24.064-24.064A93.525333 93.525333 0 0 1 750.933333 460.8l5.632-63.829333L774.485333 187.733333a23.04 23.04 0 0 0-20.650666-25.6L285.184 121.173333a22.869333 22.869333 0 0 0-24.746667 20.650667l-5.632 65.194667v310.613333h402.090667z" fill="#FFC670" p-id="24060"></path><path d="M671.744 189.952H201.216a39.936 39.936 0 0 0-39.765333 39.765333v638.293334a39.936 39.936 0 0 0 39.765333 39.765333H467.626667a17.066667 17.066667 0 0 0 17.066666-13.994667A75.776 75.776 0 0 1 505.514667 853.333333l13.994666-14.165333a17.066667 17.066667 0 0 0 0-24.064l-13.994666-12.970667a76.8 76.8 0 0 1 0-108.714666L529.066667 668.501333a111.274667 111.274667 0 0 1 74.069333-32.256A17.066667 17.066667 0 0 0 614.4 631.466667l22.186667-22.186667a17.92 17.92 0 0 0 4.949333-11.434667 109.738667 109.738667 0 0 1 32.256-74.069333l24.064-24.064a25.6 25.6 0 0 1 4.096-3.413333l2.56-2.048a17.066667 17.066667 0 0 0 6.314667-13.312V229.717333a39.765333 39.765333 0 0 0-39.082667-39.765333z" fill="#FFF6E6" p-id="24061"></path><path d="M487.082667 883.370667A74.410667 74.410667 0 0 1 505.514667 853.333333l13.994666-14.165333a17.066667 17.066667 0 0 0 0-24.064l-13.994666-12.970667a76.8 76.8 0 0 1-20.309334-71.850666 406.186667 406.186667 0 0 1-158.037333 29.184 584.192 584.192 0 0 1-148.650667-17.066667v119.466667a22.698667 22.698667 0 0 0 22.698667 22.698666z" fill="#FFEBCC" p-id="24062"></path><path d="M752.964267 553.813333l160.853333 160.8704-24.132267 24.149334a34.133333 34.133333 0 0 1-48.264533 0l-112.605867-112.605867a34.133333 34.133333 0 0 1 0-48.264533l24.149334-24.132267z" fill="#F6716F" p-id="24063"></path><path d="M733.866667 631.466667l47.957333-48.469334-28.501333-28.501333-24.576 23.381333a34.133333 34.133333 0 0 0 0 48.298667z" fill="#F6A2A2" p-id="24064"></path><path d="M764.586667 662.016l76.8 76.8a34.133333 34.133333 0 0 0 48.298666 0l24.064-24.064L812.885333 614.4z" fill="#F0504D" p-id="24065"></path><path d="M632.200533 722.7392l112.605867 112.5888a34.133333 34.133333 0 0 1 0 48.264533l-24.149333 24.149334-160.853334-160.8704 24.132267-24.132267a34.133333 34.133333 0 0 1 48.264533 0z" fill="#F6716F" p-id="24066"></path><path d="M636.586667 727.04l-5.12-4.266667a34.133333 34.133333 0 0 0-48.298667 0l-23.381333 24.064 28.501333 28.501334z" fill="#F6A2A2" p-id="24067"></path><path d="M667.989333 758.613333l-48.298666 48.298667 101.034666 100.864 24.064-24.064a34.133333 34.133333 0 0 0 0-48.298667z" fill="#F0504D" p-id="24068"></path><path d="M728.644267 626.2272l112.5888 112.605867-96.546134 96.546133-112.5888-112.605867z" fill="#F6716F" p-id="24069"></path><path d="M728.6784 626.176l25.719467 25.7024-96.546134 96.546133-25.7024-25.7024z" fill="#F6A2A2" p-id="24070"></path><path d="M697.412267 787.7632L793.941333 691.2l47.547734 47.547733-96.546134 96.546134z" fill="#F0504D" p-id="24071"></path><path d="M481.450667 316.586667a17.066667 17.066667 0 0 0 0-34.133334h-89.941334a17.066667 17.066667 0 0 0 0 34.133334zM578.218667 379.221333H294.741333a17.066667 17.066667 0 1 0 0 34.133334h283.477334a17.066667 17.066667 0 0 0 0-34.133334zM578.218667 465.237333H294.741333a17.066667 17.066667 0 0 0 0 34.133334h283.477334a17.066667 17.066667 0 0 0 0-34.133334zM925.866667 702.634667l-160.938667-160.938667a17.066667 17.066667 0 0 0-24.064 0L716.8 565.930667a51.2 51.2 0 0 0-9.898667 58.026666l-76.8 76.8a51.2 51.2 0 0 0-58.026666 9.898667l-24.234667 24.234667a17.066667 17.066667 0 0 0 0 24.064l68.266667 68.266666-68.266667 68.266667a17.066667 17.066667 0 1 0 24.234667 24.234667l68.266666-68.266667 68.266667 68.266667a17.066667 17.066667 0 0 0 24.064 0l24.234667-24.234667a51.2 51.2 0 0 0 9.898666-58.026667l76.8-76.8a51.2 51.2 0 0 0 58.026667-9.898666l24.234667-24.234667a17.066667 17.066667 0 0 0 0-23.893333z m-193.194667 168.96l-11.946667 12.117333-136.533333-136.533333 12.117333-11.946667a17.066667 17.066667 0 0 1 24.064 0l112.64 112.64a17.066667 17.066667 0 0 1-0.341333 23.722667z m12.117333-60.416l-88.405333-88.405334 72.362667-72.362666 88.405333 88.405333z m132.778667-85.333334a17.066667 17.066667 0 0 1-24.064 0L740.864 614.4a17.066667 17.066667 0 0 1 0-24.064l11.946667-12.117333 136.533333 136.533333z" fill="#3D3D63" p-id="24072"></path><path d="M467.626667 873.642667H201.216a5.632 5.632 0 0 1-5.632-5.632v-638.293334a5.632 5.632 0 0 1 5.632-5.632h470.528a5.632 5.632 0 0 1 5.632 5.632v251.050667a17.066667 17.066667 0 0 0 34.133333 0V229.717333a39.765333 39.765333 0 0 0-39.765333-39.765333H273.066667l4.096-46.592a5.632 5.632 0 0 1 6.144-5.12l468.650666 40.96a5.632 5.632 0 0 1 5.12 6.144l-23.893333 273.066667a17.066667 17.066667 0 1 0 34.133333 3.072l23.893334-273.066667a39.765333 39.765333 0 0 0-36.181334-43.178667l-468.48-40.96a39.594667 39.594667 0 0 0-43.008 36.181334l-4.608 49.493333h-37.717333a39.936 39.936 0 0 0-39.765333 39.765333v638.293334a39.936 39.936 0 0 0 39.765333 39.765333H467.626667a17.066667 17.066667 0 1 0 0-34.133333z" fill="#3D3D63" p-id="24073"></path></svg>