<?xml version="1.0" encoding="utf-8"?>
<!-- Generator: Adobe Illustrator 26.4.1, SVG Export Plug-In . SVG Version: 6.00 Build 0)  -->
<svg version="1.1" id="图层_1" xmlns="http://www.w3.org/2000/svg" xmlns:xlink="http://www.w3.org/1999/xlink" x="0px" y="0px"
	 viewBox="0 0 200 200" style="enable-background:new 0 0 200 200;" xml:space="preserve">
<style type="text/css">
	.st0{fill:#FCC632;}
	.st1{fill:#FFFFFF;}
	.st2{fill:#FF5E4C;}
</style>
<path class="st0" d="M0,100c0,55.2,44.8,100,100,100s100-44.8,100-100c0,0,0,0,0,0C200,44.8,155.2,0,100,0S0,44.8,0,100
	C0,100,0,100,0,100z"/>
<path class="st1" d="M21.9,21.9h156.2v156.2H21.9V21.9z"/>
<path d="M178.1,182H21.9c-2.1,0-3.9-1.7-3.9-3.9V21.9c0-2.1,1.7-3.9,3.9-3.9h156.2c2.1,0,3.9,1.7,3.9,3.9v156.2
	C182,180.3,180.3,182,178.1,182z M25.8,174.2h148.5V25.8H25.8V174.2z"/>
<path d="M52.1,41.5c-2.1,0-3.9-1.7-3.9-3.9V6.2c0-2.1,1.7-3.9,3.9-3.9C54.3,2.3,56,4,56,6.2c0,0,0,0,0,0v31.5
	C56,39.8,54.3,41.5,52.1,41.5z M76.1,41.5c-2.1,0-3.9-1.7-3.9-3.9V6.2c0-2.1,1.7-3.9,3.9-3.9c2.1,0,3.9,1.7,3.9,3.9v31.5
	C79.9,39.8,78.2,41.5,76.1,41.5z M100,41.5c-2.1,0-3.9-1.7-3.9-3.9V6.2c0-2.1,1.7-3.9,3.9-3.9c2.1,0,3.9,1.7,3.9,3.9v31.5
	C103.9,39.8,102.1,41.5,100,41.5z M123.9,41.5c-2.1,0-3.9-1.7-3.9-3.9V6.2c0-2.1,1.7-3.9,3.9-3.9c2.1,0,3.9,1.7,3.9,3.9v31.5
	C127.8,39.8,126.1,41.5,123.9,41.5z M147.9,41.5c-2.1,0-3.9-1.7-3.9-3.9V6.2c0-2.1,1.7-3.9,3.9-3.9c2.1,0,3.9,1.7,3.9,3.9v31.5
	C151.7,39.8,150,41.5,147.9,41.5z M57.4,64h7.8v7.8h-7.8V64z M95.9,64h7.8v7.8h-7.8V64z M134.4,64h7.8v7.8h-7.8V64z"/>
<path class="st2" d="M117.7,109.6c0,11.4,9.2,20.6,20.6,20.6c11.4,0,20.6-9.2,20.6-20.6c0,0,0,0,0,0c0-11.4-9.2-20.6-20.6-20.6
	C126.9,89,117.7,98.2,117.7,109.6C117.7,109.6,117.7,109.6,117.7,109.6z"/>
<path d="M138.2,134.1c-13.5,0-24.5-10.9-24.5-24.5s10.9-24.5,24.5-24.5c13.5,0,24.5,10.9,24.5,24.5
	C162.7,123.1,151.7,134.1,138.2,134.1z M138.2,92.9c-9.2,0-16.7,7.5-16.7,16.7s7.5,16.7,16.7,16.7c9.2,0,16.7-7.5,16.7-16.7
	C154.9,100.4,147.4,92.9,138.2,92.9z M57.4,105.7h7.8v7.8h-7.8V105.7z M95.9,105.7h7.8v7.8h-7.8V105.7z"/>
<path d="M134.4,105.7h7.8v7.8h-7.8V105.7z M57.4,147.4h7.8v7.8h-7.8V147.4z M95.9,147.4h7.8v7.8h-7.8V147.4z M134.4,147.4h7.8v7.8
	h-7.8V147.4z"/>
</svg>
