<?xml version="1.0" encoding="UTF-8"?>
<svg id="_图层_1" data-name="图层 1" xmlns="http://www.w3.org/2000/svg" viewBox="0 0 203 203.1">
  <defs>
    <style>
      .cls-1 {
        fill: #f46262;
      }

      .cls-2 {
        fill: #ed4a4a;
      }

      .cls-3, .cls-4 {
        fill: #fff;
      }

      .cls-5 {
        fill: #ffda71;
      }

      .cls-6 {
        fill: #b40000;
      }

      .cls-7 {
        fill: #d33;
      }

      .cls-4 {
        stroke: #fff;
        stroke-miterlimit: 10;
        stroke-width: .5px;
      }
    </style>
  </defs>
  <path class="cls-6" d="M181.7,203.1H21.4c-11.8,0-21.4-9.6-21.4-21.4V21.4C0,9.6,9.6,0,21.4,0H181.6c11.8,0,21.4,9.6,21.4,21.4V181.6c.1,11.9-9.5,21.5-21.3,21.5Z"/>
  <g>
    <path class="cls-2" d="M125.91,124.01c-6.93-5.3-9.03-17.86-11.65-25.58-2.54-7.38-5.72-14.53-9.5-21.36L33.46,110.23s9.27,26.86,26.57,40.79c25.7,20.63,52.62,19.26,71.09,11.33,16.02-6.88,26.05-24.74,32.37-33.33s11.48-15.47,12.35-25.84c1.28-15.47-4.28-19.14-6.15-16.9s-3.5,13.78-8.42,14.89c-3.35,.76-2.65-4.52-6.44-6.44-5.3-2.71,0,9.29-.41,15.59-1.02,17.28-17.16,22.43-28.52,13.69h0Z"/>
    <path class="cls-7" d="M165.12,111.63c4.2-6.53,3.32-14.95,2.27-19.81-.61,1.92-1.37,3.79-2.27,5.59,.44,4.73,.44,9.49,0,14.22Zm-6.88-12.67c1.22,8.74,4.49,11.65,4.49,11.65-.75-3.12-1.17-6.32-1.25-9.53-1.84,.41-2.51-.7-3.23-2.13Zm-89.16,46.88c-15.62-12.53-24.65-35.55-26.22-39.97l-9.41,4.37s9.27,26.86,26.57,40.79c25.7,20.63,52.62,19.26,71.09,11.33,2.99-1.31,5.82-2.96,8.42-4.92-18.44,7.69-45.07,8.8-70.45-11.6Z"/>
    <path class="cls-5" d="M54.67,109.44s-5.59,15.94-.73,21.15,9-5.83,14.57-6.5c5.56-.67,10.31,7.63,17.02,5.51,7.4-2.33,3.5-12.38,7.28-14.86s7.98,3.85,12.27-1.08c4.92-5.65-12.27-16.96-12.27-16.96l-38.14,12.73Z"/>
    <path class="cls-1" d="M30.66,85.96c-.97,8.29,.02,16.7,2.91,24.53,0,0,17.48,8.74,41.81,.29,15.33-4.75,26.75-17.61,29.66-33.39,0,0-17.1-31.38-44.23-28.44-14.45,1.57-27.88,14.25-30.16,37Z"/>
    <path class="cls-2" d="M40.19,88.67c-.17-19.29,7.66-32.72,18.41-39.36-13.66,2.56-25.79,15.06-27.94,36.65-.97,8.29,.02,16.7,2.91,24.53,3.85,1.67,7.92,2.79,12.09,3.32-3.63-7.88-5.5-16.46-5.48-25.14Z"/>
    <path class="cls-5" d="M39.11,52.71c2.33-3.26,6.53,3.85,12.73,1.37,6.21-2.48,2.91-8.01,6.03-8.74,4.57-1.11,5.83,9.88-3.29,14.57-8.6,4.49-18.88-2.53-15.47-7.2Zm28.79,27.77c-4.04,.02-7.33-3.25-7.34-7.28-.02-4.04,3.25-7.33,7.28-7.34,4.04-.02,7.33,3.25,7.34,7.28,0,0,0,.02,0,.03,0,4.03-3.26,7.3-7.28,7.31Zm0-11.65c-2.43-.02-4.41,1.94-4.43,4.37s1.94,4.41,4.37,4.43c2.43,.02,4.41-1.94,4.43-4.37,0,0,0-.02,0-.03,.1-2.43-1.79-4.47-4.22-4.57-.05,0-.1,0-.15,0v.17Zm-8.25,80.53c2.1-1.25,13.14,3.73,19.4,11.22,3.64,4.34,.23,5.07-1.78,3.7-1.02-.7-3.82-4.43-5.56-4.31s3.76,4.34,3.32,5.13-5.83-.99-10.08-5.1-7.81-9.15-5.3-10.63h0Z"/>
    <path class="cls-7" d="M112.39,133.68c3.86,.19,7.61-1.35,10.23-4.2,1.47-1.57,2.57-3.44,3.23-5.48-1.38-1.1-2.58-2.42-3.55-3.9-.28,2.41-1.29,4.67-2.91,6.47-2.16,2.36-5.43,3.36-8.54,2.59-1.14-.4-2.39,.19-2.79,1.33-.1,.28-.14,.57-.12,.86,0,2.3-.29,8.74-3.29,11.65-2.52,2.35-6.05,3.29-9.41,2.51-1.13-.44-2.39,.12-2.83,1.25-.44,1.13,.12,2.39,1.25,2.83,.1,.04,.2,.07,.3,.09,1.19,.32,2.41,.48,3.64,.47,3.71,.02,7.28-1.38,9.99-3.9,3.09-3.45,4.8-7.92,4.81-12.56h0Zm20.72-6.18c.44,1.95,.25,3.99-.55,5.83-1.03,2.25-3.21,3.76-5.68,3.93-1.21,.01-2.18,1-2.16,2.21,0,.24,.04,.48,.12,.71,.64,1.72,1.92,6.79,.32,9.53-1.33,2.34-3.73,3.87-6.41,4.08-1.21,0-2.18,.98-2.18,2.19,0,1.2,.98,2.18,2.18,2.18,4.22-.23,8.03-2.58,10.14-6.24,1.54-3.39,1.8-7.22,.73-10.78,3-.89,5.49-3,6.85-5.83,1.02-2.2,1.4-4.64,1.11-7.05-1.51-.06-3.01-.32-4.46-.76h0Z"/>
  </g>
  <g>
    <path class="cls-4" d="M25.57,32c0,1.51,.04,2.79,.11,3.85h-2.95v3.96c1.13,0,2.45-.04,3.96-.11v2.15c-1.51-.07-2.83-.11-3.96-.11v5.55c1.89-.3,3.21-.57,3.96-.79v2.04c-4.53,.91-7.27,1.51-8.21,1.81-.95,.3-1.91,.64-2.89,1.02-.23-.91-.49-1.7-.79-2.38l1.7-.34v-7.02c0-.83-.04-1.66-.11-2.49h2.27c-.08,.83-.11,1.66-.11,2.49v6.68l2.27-.57v-11.89h-3.96c.07-1.13,.11-2.42,.11-3.85,0-1.51-.04-3.1-.11-4.76h8.84c-.08,1.66-.11,3.25-.11,4.76Zm-1.93,2.15v-5.21h-4.76v5.21h4.76Zm6.12,9.74v5.66h7.7c1.51,0,2.83-.04,3.96-.11v2.15c-1.13-.08-2.42-.11-3.85-.11h-9.97c.07-.98,.11-2.45,.11-4.42v-15.86c0-1.51-.04-2.83-.11-3.96h9.63c1.06,0,2.27-.04,3.62-.11v2.04c-1.36-.07-2.53-.11-3.51-.11h-7.59v5.55h9.52c-.08,.83-.11,2.38-.11,4.64s.04,3.74,.11,4.64h-9.52Zm7.25-1.93v-5.55h-7.25v5.55h7.25Z"/>
    <path class="cls-4" d="M58.65,28.6h6.46c1.28,0,2.79-.04,4.53-.11v1.81c-1.74-.07-3.51-.11-5.32-.11h-14.73c-1.44,0-3.02,.04-4.76,.11v-1.81c1.66,.08,2.53,.11,2.61,.11h8.72c-.23-.75-.57-1.51-1.02-2.27,.83-.15,1.66-.34,2.49-.57,.3,.83,.64,1.78,1.02,2.83Zm-.45,11.78c-.45,.45-.87,.95-1.25,1.47h12.12v7.82c0,1.43-.32,2.25-.96,2.44-.64,.19-1.79,.36-3.46,.51-.23-.91-.53-1.74-.91-2.49,1.74,.07,2.72,.06,2.95-.06s.34-.51,.34-1.19v-5.32h-10.99c-.38,.61-.79,1.19-1.25,1.76s-.95,1.23-1.47,1.98c.91,0,3.51-.23,7.82-.68-.3-.38-.64-.79-1.02-1.25,.38-.38,.91-.79,1.59-1.25,.45,.45,.96,1.06,1.53,1.81,.57,.76,1.11,1.55,1.64,2.38-.76,.3-1.4,.68-1.93,1.13-.38-.45-.68-.91-.91-1.36-3.32,.38-5.7,.68-7.14,.91-1.44,.23-2.72,.49-3.85,.79-.15-.91-.42-1.85-.79-2.83,.6-.3,1.21-.75,1.81-1.36s1.17-1.28,1.7-2.04h-6v8.95h-2.15c.07-1.21,.11-2.49,.11-3.85v-3.51c0-1.36-.04-2.45-.11-3.29h8.95c.53-.83,.98-1.66,1.36-2.49h-8.61c.07-.75,.11-1.43,.11-2.04v-2.72c0-.68-.04-1.4-.11-2.15h2.27c-.08,.83-.11,1.62-.11,2.38v2.83h16.09v-3.06c0-.75-.04-1.43-.11-2.04h2.27c-.08,.61-.11,1.29-.11,2.04v2.61c0,.61,.04,1.32,.11,2.15h-11.44c.45,.3,1.09,.64,1.93,1.02Zm-3.06-8.55c.91,.34,1.81,.66,2.72,.96,1.51-.91,2.68-1.7,3.51-2.38,.75,.45,1.55,.95,2.38,1.47-1.36,.38-2.61,.95-3.74,1.7,1.28,.61,2.76,1.29,4.42,2.04-.53,.45-1.17,.95-1.93,1.47-1.06-.68-1.95-1.19-2.66-1.53-.72-.34-1.42-.62-2.1-.85-.61,.38-1.36,.76-2.27,1.13-.91,.38-1.93,.79-3.06,1.25-.45-.6-.98-1.13-1.59-1.59,1.13-.23,2.06-.47,2.78-.74,.72-.26,1.53-.55,2.44-.85-.98-.3-1.78-.55-2.38-.74-.61-.19-1.47-.4-2.61-.62,.6-.53,1.09-1.06,1.47-1.59,.83,.23,1.7,.51,2.61,.85Z"/>
    <path class="cls-4" d="M87.31,28.94h5.55c1.43,0,2.91-.04,4.42-.11v1.93c-1.51-.07-2.72-.11-3.62-.11h-6.57c-.15,.53-.34,1.29-.57,2.27h7.48c.53,0,1.28-.04,2.27-.11v1.81c-1.29-.07-2.15-.11-2.61-.11h-7.59c-.38,.98-.79,1.81-1.25,2.49h9.63c1.21,0,2.53-.04,3.96-.11v1.81c-1.44-.07-3.66-.11-6.68-.11,.68,.98,1.72,1.87,3.12,2.66,1.4,.79,2.93,1.42,4.59,1.87-.76,.53-1.32,1.25-1.7,2.15-1.59-.68-2.91-1.36-3.96-2.04v5.55c0,1.13,.04,2.34,.11,3.62h-2.27v-1.47h-10.2v1.36h-2.27c.07-1.29,.11-2.42,.11-3.4v-6.23c-1.29,.98-2.79,1.89-4.53,2.72-.38-.53-.95-1.06-1.7-1.59,1.51-.53,2.98-1.25,4.42-2.15,1.43-.91,2.68-1.93,3.74-3.06h-3.96c-.76,0-1.81,.08-3.17,.23v-1.93c1.36,.08,2.49,.11,3.4,.11h5.1c.53-.68,.98-1.51,1.36-2.49h-4.08c-.61,0-1.62,.04-3.06,.11v-1.81c1.43,.08,2.53,.11,3.29,.11h4.42c.23-.68,.41-1.43,.57-2.27h-6.12c-.98,0-2.15,.04-3.51,.11v-1.93c1.59,.08,2.95,.11,4.08,.11h5.78c.07-.75,.15-1.7,.23-2.83,.91,.3,1.77,.49,2.61,.57-.23,.23-.49,.98-.79,2.27Zm3.96,12.35c-.61-.6-1.29-1.51-2.04-2.72h-5.44c-1.06,1.21-2,2.12-2.83,2.72h10.31Zm.34,3.85v-2.27h-10.2v2.27h10.2Zm0,4.08v-2.38h-10.2v2.38h10.2Z"/>
    <path class="cls-4" d="M111.89,31.77c0,1.36,.04,2.53,.11,3.51h-2.49c.07-1.13,.11-2.3,.11-3.51h-3.85c-1.06,0-2.23,.08-3.51,.23v-2.27c1.28,.08,2.45,.11,3.51,.11h3.85c0-1.43-.04-2.64-.11-3.62h2.49c-.08,.98-.11,2.19-.11,3.62h6c0-1.51-.04-2.72-.11-3.62h2.61c-.08,.91-.11,2.12-.11,3.62h3.63c1.43,0,2.76-.04,3.96-.11v2.15c-1.21-.07-2.53-.11-3.96-.11h-3.63c0,1.21,.04,2.38,.11,3.51h-2.61c.07-1.21,.11-2.38,.11-3.51h-6Zm6.68,14.27c1.51,0,2.66-.07,3.46-.23,.79-.15,1.23-.6,1.3-1.36l.23-6.12h-9.63v9.86c0,1.36,.04,2.76,.11,4.19h-2.61c.15-1.36,.23-2.76,.23-4.19v-9.86h-2.49c-2.49,0-4.49,.04-6,.11v-2.15c1.59,.08,3.21,.11,4.87,.11h18.13c-.23,3.17-.38,5.74-.45,7.7-.08,1.96-.64,3.19-1.7,3.68-1.06,.49-2.49,.81-4.31,.96-.15-.91-.53-1.81-1.13-2.72Z"/>
    <path class="cls-4" d="M136.93,35.96c-.08,1.44-.11,2.91-.11,4.42v6.46c2.42,1.66,5.81,2.51,10.2,2.55,4.38,.04,7.89-.09,10.54-.4-.45,.91-.76,1.77-.91,2.61-3.1,.07-5.66,.07-7.7,0-2.04-.08-3.79-.19-5.27-.34-1.47-.15-2.68-.4-3.62-.74-.95-.34-1.85-.78-2.72-1.3-.87-.53-1.62-.47-2.27,.17-.64,.64-1.38,1.57-2.21,2.78-.53-.61-1.17-1.17-1.93-1.7,1.74-1.66,2.98-2.83,3.74-3.51v-9.06c-.83,0-2,.04-3.51,.11v-2.15c1.59,.08,2.83,.11,3.74,.11h2.04Zm1.36-4.19c-.68,.38-1.36,.87-2.04,1.47-.98-1.66-2.15-3.25-3.51-4.76,.75-.53,1.4-1.02,1.93-1.47,1.89,2.42,3.1,4,3.62,4.76Zm14.16-3.51c.75,0,1.93-.04,3.51-.11v2.15c-1.36-.07-2.72-.11-4.08-.11h-2.61l-1.47,2.95v10.54c0,1.36,.04,2.76,.11,4.19h-2.38c.07-1.43,.11-2.87,.11-4.3v-7.25c-1.36,1.89-3.55,4.08-6.57,6.57-.38-.6-.95-1.21-1.7-1.81,1.66-.91,3.3-2.23,4.93-3.96,1.62-1.74,3.12-4.04,4.47-6.91h-5.21c-.76,0-1.51,.04-2.27,.11v-2.15c.75,0,1.81,.04,3.17,.11h9.97Zm4.53,12.91c-.68,.38-1.36,.87-2.04,1.47-.76-1.21-2.49-3.4-5.21-6.57,.6-.45,1.13-.94,1.59-1.47,1.06,1.13,2.95,3.32,5.66,6.57Z"/>
    <path class="cls-4" d="M165.02,38.17c1.66-1.7,3.17-3.79,4.53-6.29h-4.08c-1.06,0-2.38,.04-3.96,.11v-2.15c1.96,.08,3.44,.11,4.42,.11h4.3c.6-1.81,.94-3.13,1.02-3.96,1.13,.3,2.04,.53,2.72,.68-.23,.23-.61,1.32-1.13,3.29h9.18c1.28,0,2.61-.04,3.96-.11v2.15c-1.36-.07-2.57-.11-3.62-.11h-10.2c-.53,.98-1.1,1.96-1.7,2.95h13.03c-.08,1.89-.11,3.59-.11,5.1v9.18c0,1.06-.3,1.83-.91,2.32-.61,.49-1.89,.81-3.85,.96-.08-.83-.34-1.74-.79-2.72,1.13,.15,1.96,.19,2.49,.11,.53-.08,.79-.49,.79-1.25v-2.27h-11.78v6h-2.49c.07-1.89,.11-3.51,.11-4.87v-8.04c-1.59,1.81-3.25,3.4-4.98,4.76-.3-.53-.98-1.13-2.04-1.81,1.74-1.06,3.44-2.44,5.1-4.13Zm16.09,1.64v-3.17h-11.78v3.17h11.78Zm0,4.64v-2.83h-11.78v2.83h11.78Z"/>
  </g>
  <path class="cls-3" d="M123.11,106.26c0,22.73-7.43,34.1-22.29,34.1s-21.71-11.27-21.71-33.81,7.32-33.91,21.95-33.91,22.05,11.21,22.05,33.62Zm-9.28-.48c0-9.53-.93-16.22-2.8-20.06-1.87-3.84-5.13-5.76-9.78-5.76s-8.08,2.14-10,6.41c-1.91,4.27-2.87,11.69-2.87,22.24,0,8.7,.98,14.95,2.94,18.75,1.96,3.8,5.19,5.69,9.68,5.69s7.92-2.1,9.88-6.29c1.96-4.19,2.94-11.18,2.94-20.97Z"/>
  <path class="cls-4" d="M87.89,183.05c3.37-.52,5.97-1.63,7.8-3.33,1.83-1.7,3.1-4.2,3.83-7.5h-7.43c-.96,0-1.79,.05-2.49,.14,.08-.61,.11-1.08,.11-1.4s-.05-.81-.14-1.46c.88,.17,1.84,.25,2.89,.25h7.42v-6.64h-6.07c-.72,0-1.56,.07-2.52,.21,.1-.66,.16-1.15,.16-1.47s-.05-.82-.16-1.47c.6,.12,1.31,.18,2.12,.18h14.83c.95,0,1.87-.05,2.76-.16-.07,.72-.1,1.25-.1,1.6,0,.28,.02,.7,.06,1.25-.77-.09-1.58-.14-2.41-.14h-6.22v6.63h8.33c.76,0,1.53-.08,2.32-.24-.06,.63-.08,1.1-.08,1.42s.03,.8,.08,1.44c-1.08-.09-1.84-.14-2.29-.14h-7.76c.98,3.19,2.34,5.52,4.08,6.99,1.74,1.47,4.19,2.36,7.34,2.67-.98,.94-1.7,2.01-2.17,3.19-3.21-1.25-5.58-2.66-7.11-4.23s-2.8-3.92-3.82-7.04c-.93,3.32-2.08,5.75-3.48,7.29-1.39,1.54-3.82,3.07-7.27,4.59-.59-1.07-1.46-1.94-2.61-2.62Z"/>
</svg>