<?xml version="1.0" encoding="utf-8"?>
<!-- Generator: Adobe Illustrator 26.4.1, SVG Export Plug-In . SVG Version: 6.00 Build 0)  -->
<svg version="1.1" id="_图层_1" xmlns="http://www.w3.org/2000/svg" xmlns:xlink="http://www.w3.org/1999/xlink" x="0px" y="0px"
	 viewBox="0 0 357.5 250" style="enable-background:new 0 0 357.5 250;" xml:space="preserve">
<style type="text/css">
	.st0{fill:#1467FF;}
	.st1{fill:#081E42;}
	.st2{opacity:0.34;fill:#AAAEFF;}
	.st3{fill:#D81E06;}
</style>
<path d="M326.4,0H31.1C13.9,0,0,15.3,0,34.1v33.4v148.3C0,234.7,13.9,250,31.1,250h295.3c17.2,0,31.1-15.3,31.1-34.2V67.5V34.1
	C357.5,15.3,343.6,0,326.4,0z"/>
<rect x="30.2" y="24" class="st0" width="61.4" height="33.9"/>
<rect x="104.5" y="24" class="st1" width="61.4" height="33.9"/>
<rect x="178.8" y="24" class="st1" width="61.4" height="33.9"/>
<rect x="28.8" y="86" class="st2" width="300" height="17"/>
<rect x="28.8" y="125.2" class="st2" width="300" height="17"/>
<rect x="28.8" y="164.4" class="st2" width="300" height="17"/>
<rect x="28.8" y="203.6" class="st2" width="300" height="17"/>
<path class="st3" d="M316.3,31.6l-3.6,3.6c0,0,0-14.3-12.1-19.1c0,0-1.2,13.1-7.3,17.9c-6,4.8-18.1,19.1,6,29.8
	c0,0-12.1-13.1,3.6-22.6c0,0-1.2,4.8,4.8,9.5c6,4.8,0,13.1,0,13.1S336.9,56.7,316.3,31.6L316.3,31.6z"/>
</svg>
