<?xml version="1.0" encoding="UTF-8"?>
<svg id="_图层_1" data-name=" 图层 1" xmlns="http://www.w3.org/2000/svg" xmlns:xlink="http://www.w3.org/1999/xlink" viewBox="0 0 96 96">
  <defs>
    <style>
      .cls-1, .cls-2 {
        fill: #fff;
      }

      .cls-2 {
        stroke: #fff;
        stroke-miterlimit: 10;
        stroke-width: .25px;
      }

      .cls-3 {
        opacity: .5;
      }

      .cls-4 {
        fill: url(#_未命名的渐变_3);
      }
    </style>
    <linearGradient id="_未命名的渐变_3" data-name="未命名的渐变 3" x1="47.9" y1="97.29" x2="48.09" y2="1.29" gradientUnits="userSpaceOnUse">
      <stop offset="0" stop-color="#72ade0"/>
      <stop offset="1" stop-color="#106abd"/>
    </linearGradient>
  </defs>
  <rect class="cls-4" width="96" height="96" rx="16.09" ry="16.09"/>
  <g>
    <g>
      <path class="cls-1" d="M33.54,13.22c0,.44-.02,.85-.04,1.23-.02,.38-.04,.74-.07,1.08,.7,0,1.29-.02,1.77-.04,.48-.02,.92-.05,1.32-.09v1.37c-.41-.05-.86-.08-1.36-.1-.5-.02-1.12-.03-1.85-.04-.08,.56-.17,1.05-.28,1.47-.11,.41-.27,.81-.49,1.19-.21,.38-.5,.77-.85,1.16-.36,.39-.82,.85-1.39,1.38-.14-.19-.29-.36-.47-.5-.18-.14-.42-.27-.71-.41,.39-.16,.76-.37,1.1-.63,.35-.27,.65-.58,.92-.95,.27-.36,.49-.78,.68-1.23,.18-.46,.31-.95,.38-1.47-.64,0-1.19,.02-1.64,.04-.45,.02-.87,.05-1.25,.1v-1.37c.4,.04,.83,.07,1.29,.09,.46,.02,1.03,.03,1.7,.04,.03-.37,.05-.74,.06-1.1s0-.77,0-1.2c-.58,0-1.07,.02-1.47,.04-.4,.02-.77,.05-1.11,.1v-1.36c.45,.05,.95,.09,1.52,.11s1.26,.03,2.09,.02c.28-.58,.51-1.11,.67-1.59,.17-.48,.29-.94,.38-1.39,.19,.1,.42,.18,.66,.26s.43,.13,.53,.15c.1,.02,.14,.06,.14,.12,0,.06-.08,.15-.23,.27-.08,.07-.22,.3-.44,.69-.21,.39-.45,.88-.7,1.47,.37,0,.7-.02,.99-.04,.29-.02,.56-.04,.82-.07v1.36c-.35-.05-.73-.08-1.15-.1-.41-.02-.92-.03-1.51-.04Zm-2.04-1.34c-.06-.16-.13-.33-.22-.52-.09-.19-.18-.37-.29-.55-.11-.18-.22-.35-.34-.52-.12-.17-.23-.31-.34-.42l1.14-.47c.08,.16,.17,.32,.26,.5,.1,.18,.2,.36,.31,.55,.11,.18,.21,.36,.31,.52,.1,.17,.2,.31,.28,.42l-1.12,.48Zm3.52,9.07c-.2-.42-.48-.88-.82-1.37-.34-.5-.71-.97-1.11-1.43l.9-.53c.18,.18,.36,.37,.55,.6s.39,.45,.59,.69c.2,.24,.39,.47,.56,.71s.33,.44,.47,.63l-1.15,.7Zm7.07-2.6c0,.31-.04,.58-.12,.81-.08,.23-.22,.43-.43,.61-.21,.18-.5,.32-.88,.44-.38,.12-.87,.21-1.47,.29,.04-.28,.02-.55-.04-.8-.07-.25-.23-.5-.48-.75,.38,.11,.71,.16,.98,.15,.28,0,.51-.05,.69-.13,.18-.08,.31-.19,.4-.33,.09-.14,.13-.29,.13-.47,0-.59-.13-1.17-.39-1.72s-.73-1.12-1.42-1.69l1.14-3.59h-2v11.32h-1.17c0-.3,.02-.58,.03-.85,0-.26,.02-.52,.02-.77,0-.25,0-.5,0-.75V11.35c0-.25,0-.47,0-.64,0-.17-.01-.32-.01-.43,0-.11-.01-.2-.02-.26,.31,.02,.65,.03,1.01,.04,.36,0,.83,0,1.39,0s1.03,0,1.39,0c.36,0,.7-.02,1.01-.04l-1.66,4.46c.42,.44,.75,.81,1,1.13s.44,.62,.58,.9c.14,.28,.23,.57,.27,.85,.04,.29,.07,.62,.07,.98Z"/>
      <path class="cls-1" d="M38.4,22.71h-1.6v-.22c.02-.3,.03-.58,.04-.85,0-.26,.02-.51,.02-.76,0-.25,0-.5,0-.75V11.35c0-.25,0-.46,0-.64v-.43c-.02-.1-.02-.18-.03-.23l-.04-.27,.27,.02c.31,.02,.64,.03,1,.04,.36,0,.83,0,1.39,0s1.02,0,1.38,0c.36,0,.69-.02,1-.04l.33-.02-1.73,4.65c.38,.4,.69,.75,.92,1.05,.26,.33,.46,.64,.6,.94,.14,.3,.24,.61,.29,.91,.05,.3,.07,.64,.07,1.02,0,.33-.04,.63-.13,.88-.09,.26-.26,.5-.5,.7-.23,.19-.55,.35-.96,.48-.39,.12-.9,.22-1.51,.3l-.28,.04,.04-.28c.03-.25,.02-.49-.04-.71-.06-.21-.2-.43-.43-.66l-.1-.1v3.71Zm-1.16-.43h.73v-3.71l-.05-.05,.05,.02v-7.57h2.51l-1.18,3.73c.65,.56,1.11,1.12,1.37,1.67,.27,.58,.41,1.19,.41,1.81,0,.22-.06,.41-.17,.58-.11,.17-.28,.31-.49,.41-.21,.1-.47,.15-.77,.15-.14,0-.29,0-.45-.03,.07,.12,.12,.24,.15,.36,.05,.19,.08,.39,.07,.6,.47-.07,.87-.15,1.18-.25,.35-.11,.62-.24,.81-.4,.18-.15,.3-.32,.36-.51,.07-.21,.11-.45,.11-.74,0-.36-.02-.68-.06-.95-.04-.26-.12-.53-.25-.79-.13-.27-.31-.56-.55-.86-.24-.31-.58-.69-.99-1.11l-.09-.1,1.6-4.28c-.22,0-.45,.02-.69,.02-.36,0-.82,0-1.39,0s-1.03,0-1.4,0c-.27,0-.53-.01-.78-.02,0,0,0,.01,0,.02,0,.11,.01,.26,.02,.43,0,.18,0,.39,0,.65v8.78c0,.25,0,.51,0,.76,0,.25-.01,.51-.02,.77l-.02,.62Zm1.16-3.62l.31,.09c.36,.1,.66,.15,.92,.15,.25,0,.45-.04,.6-.11,.14-.07,.24-.15,.31-.25,.07-.1,.1-.22,.1-.35,0-.56-.12-1.11-.37-1.63-.24-.52-.7-1.07-1.36-1.62l-.11-.09,1.09-3.45h-1.49v7.27Zm-8.16,3.48l-.14-.2c-.12-.18-.27-.33-.43-.45-.17-.13-.39-.26-.67-.39l-.45-.21,.46-.18c.37-.15,.72-.35,1.05-.61,.33-.25,.62-.56,.88-.91,.26-.35,.48-.75,.65-1.19,.15-.37,.26-.76,.33-1.17-.53,0-.99,.02-1.38,.04-.45,.02-.86,.05-1.23,.1l-.24,.03v-1.85l.24,.02c.4,.04,.83,.07,1.28,.09,.41,.02,.91,.03,1.49,.04,.02-.3,.04-.59,.04-.89,0-.3,0-.63,0-.98-.49,0-.91,.02-1.25,.04-.39,.02-.76,.05-1.09,.1l-.24,.03v-1.84l.24,.03c.44,.05,.94,.08,1.49,.11-.05-.14-.12-.29-.19-.45-.08-.18-.18-.36-.28-.53-.1-.18-.21-.34-.33-.5-.11-.16-.22-.29-.32-.4l-.21-.23,1.61-.66,.09,.18c.08,.15,.16,.32,.26,.5,.1,.18,.2,.36,.3,.54,.11,.18,.21,.36,.31,.52,.1,.16,.19,.3,.27,.41l.16,.22-1.02,.44c.39,0,.82,0,1.29,0,.25-.53,.45-1.01,.6-1.45,.16-.47,.29-.92,.37-1.36l.05-.28,.25,.13c.18,.09,.4,.18,.63,.25,.24,.07,.41,.12,.51,.14,.25,.05,.32,.21,.31,.35-.01,.13-.1,.26-.31,.42,0,0-.1,.1-.38,.63-.17,.32-.36,.7-.56,1.14,.23,0,.45-.02,.64-.03,.29-.02,.56-.04,.81-.07l.24-.03v1.84l-.24-.03c-.34-.05-.72-.08-1.13-.1-.36-.02-.79-.03-1.29-.04,0,.36-.02,.7-.04,1.02-.01,.29-.03,.58-.05,.85,.6,0,1.11-.02,1.53-.04,.47-.02,.91-.05,1.31-.09l.24-.02v1.85l-.24-.03c-.4-.05-.85-.08-1.35-.1-.46-.02-1.01-.03-1.65-.04-.05,.34-.11,.65-.17,.93l.71-.41,.12,.12c.18,.18,.37,.38,.56,.61,.2,.22,.39,.46,.59,.7,.2,.24,.39,.48,.57,.72,.18,.23,.33,.44,.47,.63l.14,.19-1.55,.94-.1-.21c-.2-.41-.47-.86-.8-1.34-.28-.41-.58-.81-.91-1.19-.1,.3-.24,.59-.39,.87-.22,.39-.52,.79-.88,1.2-.36,.4-.83,.87-1.41,1.39l-.18,.17Zm-.66-1.22c.13,.07,.25,.15,.35,.23,.13,.1,.26,.22,.37,.35,.49-.45,.89-.86,1.21-1.21,.34-.38,.62-.76,.83-1.12,.19-.33,.33-.68,.44-1.04l-.03-.04,.05-.03s0-.03,.01-.04c.11-.4,.2-.89,.28-1.44l.03-.19h.19c.73,.01,1.35,.03,1.85,.05,.41,.02,.79,.04,1.14,.08v-.9c-.34,.03-.71,.05-1.1,.07-.48,.02-1.08,.03-1.78,.04h-.24s.02-.23,.02-.23c.03-.34,.05-.7,.07-1.07,.02-.38,.03-.78,.04-1.22v-.21s.22,0,.22,0c.6,0,1.1,.02,1.52,.04,.33,.02,.63,.04,.92,.07v-.87c-.19,.02-.38,.03-.59,.05-.29,.02-.63,.03-1,.04h-.34s.13-.3,.13-.3c.25-.59,.49-1.08,.71-1.48,.3-.55,.41-.69,.49-.75,.02-.02,.04-.03,.06-.05-.11-.03-.25-.07-.43-.12-.16-.05-.31-.1-.44-.16-.08,.37-.2,.76-.33,1.15-.17,.48-.4,1.03-.68,1.61l-.06,.12h-.13c-.82,.01-1.53,0-2.1-.02-.47-.02-.9-.05-1.29-.09v.87c.28-.03,.57-.06,.88-.07,.4-.02,.89-.03,1.48-.04h.21s0,.21,0,.21c0,.44,0,.85,0,1.21s-.03,.74-.06,1.11l-.02,.2h-.2c-.67-.01-1.24-.03-1.71-.05-.37-.02-.73-.04-1.07-.07v.89c.32-.03,.66-.06,1.02-.08,.45-.02,1-.03,1.65-.04h.25s-.03,.24-.03,.24c-.07,.54-.2,1.05-.39,1.53-.19,.47-.43,.9-.7,1.28-.28,.38-.6,.71-.96,.99-.24,.18-.48,.34-.74,.48Zm3.82-2.71c.34,.4,.66,.82,.95,1.25,.29,.42,.53,.82,.73,1.19l.75-.46c-.1-.13-.21-.28-.33-.44-.17-.23-.36-.46-.55-.7-.2-.24-.39-.47-.59-.69-.15-.17-.29-.33-.43-.47l-.54,.31Zm-2.75-8.25c.05,.07,.1,.14,.16,.21,.12,.17,.23,.35,.34,.53,.11,.19,.21,.38,.3,.57,.05,.11,.1,.22,.14,.32l.68-.29c-.05-.07-.09-.14-.14-.22-.1-.17-.21-.34-.32-.53-.11-.19-.21-.37-.31-.55-.06-.12-.12-.23-.18-.33l-.68,.28Z"/>
    </g>
    <g>
      <path class="cls-1" d="M48.33,9.96c-.17,.15-.26,.66-.25,1.53,.02,1.11,.02,2.09,0,2.95-.02,.86-.08,1.62-.15,2.3-.08,.68-.18,1.28-.31,1.81s-.3,1.02-.5,1.48-.43,.89-.69,1.31c-.26,.41-.56,.84-.9,1.28-.15-.17-.34-.33-.59-.48s-.51-.28-.78-.36c.42-.32,.79-.66,1.1-1.03,.32-.36,.59-.77,.82-1.23,.23-.45,.41-.96,.55-1.51s.23-1.18,.29-1.88c.04-.42,.06-.89,.07-1.41,0-.52,.01-1.06,0-1.63,0-.57-.02-1.15-.05-1.75s-.06-1.19-.1-1.77c.28,.05,.53,.08,.75,.09,.22,0,.42,0,.59,0,.17,0,.26,.02,.29,.08,.03,.06-.01,.14-.13,.24Zm-2.07,2.9c-.02,.48-.05,.92-.08,1.33-.03,.41-.08,.81-.13,1.2-.05,.39-.11,.77-.18,1.15-.07,.37-.15,.76-.23,1.16l-1.36-.23c.3-.73,.52-1.47,.65-2.23,.13-.76,.21-1.58,.23-2.48l1.11,.12Zm2.79,4.35c-.06-.76-.14-1.47-.25-2.12-.11-.66-.24-1.29-.41-1.89l1.04-.22c.13,.59,.26,1.24,.39,1.95,.13,.71,.25,1.38,.36,2.01l-1.12,.26Zm2.89-6.64c-.08,.05-.13,.16-.16,.32-.03,.17-.04,.42-.04,.77v7.57c0,.4,0,.81,.02,1.25,.01,.43,.04,.91,.08,1.42h-1.36c.04-.51,.07-.98,.08-1.41,.01-.44,.02-.86,.02-1.25v-6.84c0-.52-.01-.98-.04-1.39-.03-.41-.07-.7-.12-.87,.28,.06,.52,.1,.71,.12,.19,.02,.43,.03,.7,.03,.17,0,.26,.03,.28,.09,.02,.06-.04,.13-.18,.2Zm.92,6.77c-.07-.75-.16-1.47-.28-2.16s-.26-1.33-.43-1.91l1.04-.23c.18,.66,.34,1.33,.49,2,.15,.67,.28,1.35,.4,2.03l-1.21,.28Zm3.15-7.5c-.09,.05-.15,.16-.18,.32-.03,.17-.04,.42-.04,.77v8.81c0,.4,.01,.82,.03,1.28,.02,.45,.05,.92,.09,1.41h-1.36c.04-.5,.07-.97,.08-1.41,.02-.45,.02-.87,.02-1.27V11.67c0-.52-.02-.98-.04-1.39-.03-.41-.07-.7-.12-.87,.28,.06,.52,.1,.72,.12,.19,.02,.42,.03,.69,.03,.17,0,.27,.03,.29,.09s-.04,.13-.17,.2Z"/>
      <path class="cls-1" d="M45.52,22.95l-.17-.19c-.13-.15-.31-.3-.54-.44-.23-.15-.48-.26-.73-.34l-.39-.13,.32-.25c.4-.31,.76-.65,1.07-1,.3-.35,.57-.75,.79-1.18,.22-.43,.4-.93,.53-1.46,.13-.54,.23-1.16,.29-1.85,.04-.41,.06-.88,.07-1.39,0-.52,.01-1.06,0-1.63,0-.57-.02-1.15-.05-1.74-.03-.6-.06-1.19-.1-1.77l-.02-.27,.27,.05c.27,.05,.52,.08,.72,.08,.21,0,.4,0,.57,0,.1,0,.39-.02,.5,.2,.05,.11,.06,.29-.19,.5h0s-.18,.19-.17,1.36c0,.53,.01,1.03,.01,1.51l1.28-.27,.04,.21c.13,.59,.26,1.25,.39,1.96,.12,.67,.24,1.31,.34,1.91v-4.41c0-.51-.01-.97-.04-1.38-.03-.49-.08-.72-.11-.82l-.1-.34,.35,.07c.27,.06,.51,.09,.69,.11,.19,.02,.42,.03,.68,.03,.1,0,.4,0,.48,.23,.06,.17-.03,.32-.26,.45,0,0-.04,.04-.06,.18-.03,.15-.04,.4-.04,.74v1.43l1.38-.31,.05,.2c.17,.65,.34,1.33,.49,2.01,.15,.65,.28,1.33,.4,2.04l.03,.2-1.65,.38-.02-.24c-.07-.74-.16-1.46-.28-2.14-.12-.66-.26-1.28-.41-1.85v5.86c0,.4,0,.81,.02,1.24,.01,.43,.04,.9,.08,1.41l.02,.23h-1.82l.02-.23c.04-.5,.07-.97,.08-1.41,.01-.44,.02-.85,.02-1.25v-2.11l-1.51,.35-.02-.25c-.06-.75-.14-1.46-.25-2.1-.08-.48-.17-.94-.28-1.39,0,.25,0,.49-.01,.72-.02,.86-.08,1.64-.15,2.32-.08,.68-.19,1.3-.32,1.84-.13,.54-.3,1.05-.51,1.51-.2,.47-.44,.92-.71,1.33-.26,.42-.57,.85-.92,1.29l-.16,.2Zm-.96-1.25c.16,.07,.32,.16,.47,.25,.17,.11,.33,.22,.46,.34,.28-.36,.53-.72,.74-1.07,.25-.4,.48-.83,.68-1.28,.19-.44,.36-.93,.48-1.45,.13-.52,.23-1.12,.31-1.78,.08-.67,.13-1.43,.15-2.28,.02-.85,.03-1.84,0-2.94-.01-1.1,.12-1.47,.26-1.64-.17,0-.36,0-.56,0-.15,0-.33-.02-.51-.05,.03,.5,.06,1,.08,1.51,.03,.6,.05,1.19,.05,1.76,0,.57,0,1.12,0,1.64,0,.52-.03,1-.07,1.42-.06,.71-.16,1.35-.3,1.91-.14,.57-.33,1.09-.56,1.56-.24,.47-.52,.89-.85,1.27-.25,.29-.53,.56-.84,.82Zm6.14,0h.89c-.03-.43-.05-.83-.06-1.2-.01-.43-.02-.85-.02-1.25v-7.57c0-.37,.02-.63,.05-.81,.03-.16,.07-.27,.14-.36-.23,0-.43-.01-.6-.03-.12-.01-.26-.03-.42-.06,.02,.16,.04,.35,.06,.58,.03,.42,.04,.89,.04,1.41v6.84c0,.4,0,.82-.02,1.26-.01,.37-.03,.77-.06,1.19Zm1.7-8.26c.14,.53,.27,1.1,.37,1.71,.11,.62,.2,1.27,.26,1.93l.77-.18c-.11-.63-.23-1.24-.36-1.82-.14-.61-.28-1.21-.43-1.79l-.61,.14Zm-3.75-.07c.14,.54,.26,1.11,.35,1.69,.1,.58,.17,1.22,.23,1.89l.68-.16c-.1-.57-.21-1.18-.32-1.81-.12-.63-.23-1.2-.34-1.74l-.6,.13Zm-.39-3.64h0Zm7.87,12.92h-1.82l.02-.23c.04-.49,.06-.96,.08-1.41s.02-.87,.02-1.26V11.67c0-.5-.01-.96-.04-1.38-.03-.49-.08-.72-.11-.82l-.1-.34,.35,.07c.28,.06,.51,.1,.69,.11,.19,.02,.41,.03,.66,.03,.11,0,.41,0,.49,.23,.04,.12,.03,.29-.27,.46h0s-.04,.03-.07,.17c-.02,.11-.04,.32-.04,.73v8.81c0,.4,.01,.82,.03,1.27,.02,.45,.05,.92,.09,1.4l.02,.23Zm-1.36-.43h.89c-.03-.41-.05-.8-.07-1.18-.02-.46-.03-.88-.03-1.29V10.94c0-.36,.02-.63,.05-.81,.03-.16,.08-.28,.15-.36-.22,0-.42-.01-.59-.03-.12-.01-.26-.03-.42-.06,.02,.16,.04,.35,.06,.58,.03,.42,.04,.9,.04,1.41v8.08c0,.4,0,.83-.02,1.28-.01,.38-.03,.78-.06,1.19Zm-8.98-4.28l-1.82-.31,.1-.25c.29-.71,.51-1.45,.64-2.19,.13-.75,.2-1.57,.22-2.45v-.23s1.55,.16,1.55,.16v.2c-.03,.48-.05,.93-.09,1.34-.03,.41-.08,.82-.13,1.21-.05,.39-.12,.78-.18,1.15-.07,.38-.15,.77-.24,1.17l-.04,.2Zm-1.22-.65l.89,.15c.07-.33,.13-.64,.19-.95,.07-.37,.13-.75,.18-1.14,.05-.39,.1-.78,.13-1.18,.03-.35,.05-.72,.07-1.12l-.68-.07c-.03,.81-.1,1.58-.22,2.28-.12,.68-.31,1.37-.56,2.03Z"/>
    </g>
    <g>
      <path class="cls-1" d="M64.05,12.4c-.63,0-1.21,0-1.74,.01-.52,0-1.01,.02-1.47,.03-.45,.01-.88,.02-1.27,.04-.39,.02-.77,.04-1.13,.06v-1.39c.39,.03,.8,.05,1.23,.07,.43,.01,.9,.03,1.4,.04,.5,.01,1.05,.02,1.65,.03,.6,0,1.26,0,1.99,0s1.4,0,2.01,0c.61,0,1.17-.01,1.69-.03s.99-.03,1.43-.04c.44-.01,.85-.04,1.24-.07v1.39c-.37-.03-.76-.05-1.16-.07-.4-.01-.84-.03-1.31-.04s-.97-.02-1.52-.03c-.54,0-1.14,0-1.78,0v1.94c.8,0,1.57-.02,2.3-.04,.74-.02,1.36-.04,1.85-.07v5.35c0,.29-.02,.54-.07,.74-.04,.2-.15,.37-.31,.5s-.41,.25-.72,.34-.74,.17-1.28,.26c-.03-.31-.1-.59-.2-.84-.11-.25-.28-.48-.53-.71,.41,.09,.73,.14,.98,.17,.24,.02,.43,.01,.55-.04,.13-.05,.21-.14,.25-.26,.04-.13,.06-.3,.06-.51v-3.84h-2.89v4.67c0,.36,.01,.76,.04,1.2,.02,.44,.06,.88,.11,1.31h-1.56c.05-.44,.08-.88,.11-1.31,.02-.44,.04-.84,.04-1.2v-4.67h-2.76v5.85h-1.37c.05-.39,.08-.74,.09-1.04,.01-.31,.02-.64,.02-1.01v-4.96c.55,.03,1.16,.05,1.83,.07,.67,.02,1.39,.03,2.18,.04v-1.94Zm.12-1.18c-.18-.65-.45-1.23-.8-1.72l1.41-.42c.16,.28,.3,.56,.42,.84,.13,.28,.25,.57,.38,.88l-1.42,.42Z"/>
      <path class="cls-1" d="M65.71,22.78h-2.04l.03-.24c.05-.43,.08-.87,.11-1.3,.02-.43,.04-.83,.04-1.18v-4.45h-2.33v5.85h-1.83l.03-.24c.05-.39,.08-.73,.09-1.03,.01-.3,.02-.64,.02-1v-5.19h.23c.55,.04,1.16,.07,1.82,.08,.6,.02,1.26,.03,1.96,.04v-1.51c-.55,0-1.05,0-1.52,.01l-1.47,.03c-.45,.01-.87,.02-1.26,.04l-1.36,.07v-1.84l.23,.02c.39,.03,.79,.05,1.22,.06,.43,.01,.9,.03,1.4,.04,.5,.01,1.05,.02,1.64,.03,.37,0,.76,0,1.17,0-.17-.55-.41-1.04-.71-1.47l-.17-.24,1.87-.56,.08,.15c.16,.28,.3,.57,.43,.85,.13,.28,.26,.58,.38,.89l.09,.22-.53,.16c.49,0,.95,0,1.38,0,.61,0,1.17-.01,1.68-.03s.99-.03,1.43-.04c.43-.01,.84-.04,1.23-.06l.23-.02v1.85l-.23-.02c-.37-.03-.75-.05-1.15-.06l-1.3-.04c-.47-.01-.97-.02-1.51-.03-.48,0-1,0-1.56,0v1.51c.72,0,1.41-.02,2.08-.04,.74-.02,1.35-.04,1.85-.07h.23s0,5.57,0,5.57c0,.31-.02,.57-.07,.78-.05,.25-.18,.45-.39,.62-.19,.16-.45,.28-.8,.38-.32,.09-.75,.18-1.3,.27l-.23,.04-.02-.23c-.03-.29-.09-.55-.19-.77-.09-.22-.25-.43-.47-.63l-.58-.53,.77,.16c.4,.09,.72,.14,.95,.16,.26,.03,.39,0,.46-.02,.06-.03,.1-.06,.12-.13,.03-.1,.05-.25,.05-.45v-3.62h-2.46v4.45c0,.36,.01,.75,.04,1.18,.02,.44,.06,.88,.11,1.3l.03,.24Zm-1.56-.43h1.08c-.04-.36-.06-.72-.09-1.09-.02-.44-.04-.84-.04-1.21v-4.88h3.32v4.05c0,.24-.02,.43-.07,.57-.06,.19-.19,.33-.38,.4-.16,.06-.37,.08-.65,.05-.11-.01-.25-.03-.39-.05,.06,.1,.12,.19,.16,.29,.09,.21,.15,.43,.19,.68,.43-.07,.77-.15,1.03-.22,.29-.08,.5-.18,.64-.29,.13-.11,.21-.23,.24-.38,.04-.18,.06-.42,.06-.69v-5.13c-.45,.02-1,.04-1.63,.06-.74,.02-1.51,.03-2.31,.04h-.22s0-2.37,0-2.37h.21c.64,0,1.24,0,1.78,0,.55,0,1.05,.01,1.52,.03l1.31,.04c.32,.01,.64,.03,.94,.05v-.92c-.32,.02-.66,.04-1.02,.05-.44,.01-.91,.03-1.43,.04s-1.08,.02-1.69,.03c-.61,0-1.28,0-2.01,0s-1.4,0-1.99,0c-.6,0-1.15-.01-1.65-.03-.5-.01-.97-.03-1.4-.04-.35-.01-.69-.03-1.01-.05v.93l.9-.05c.4-.02,.82-.03,1.28-.04l1.47-.03c.53,0,1.11-.01,1.74-.01h.21v2.37h-.22c-.79-.01-1.52-.03-2.18-.05-.58-.02-1.12-.04-1.61-.06v4.73c0,.37,0,.71-.02,1.02-.01,.24-.04,.52-.07,.82h.92v-5.85h3.19v4.88c0,.36-.01,.77-.04,1.21-.02,.36-.05,.73-.08,1.09Zm-.44-12.73c.25,.4,.45,.85,.61,1.33l.98-.29c-.09-.23-.19-.45-.29-.66-.1-.22-.21-.45-.33-.67l-.97,.29Z"/>
    </g>
  </g>
  <path class="cls-1" d="M16.04,7.65c-3.48,0-6.29,2.81-6.29,6.29,0,1.72,.69,3.29,1.81,4.43l4.48,4.44,4.47-4.45c1.12-1.14,1.81-2.69,1.81-4.43,.01-3.46-2.8-6.28-6.28-6.28Zm2.17,5.6c-.08,1.06-.92,1.89-1.98,1.98-1.27,.11-2.34-.91-2.34-2.15s.97-2.17,2.17-2.17,2.26,1.07,2.15,2.34h0Z"/>
  <g>
    <g>
      <path class="cls-1" d="M17.67,49.33c.71-.2,1.39-.3,2.04-.3,1.85,0,3.47,.74,4.85,2.21,1.38,1.47,2.08,3.26,2.08,5.36s-.75,3.88-2.24,5.34-3.33,2.19-5.49,2.19-3.97-.74-5.41-2.21-2.16-3.27-2.16-5.39c0-1.03,.2-2.08,.6-3.16,.4-1.08,1.13-2.4,2.18-3.97l7.43-11.08,2.41,1.51-6.29,9.51Zm1.31,11.99c1.32,0,2.45-.47,3.4-1.41,.95-.94,1.42-2.08,1.42-3.41s-.47-2.48-1.41-3.42c-.94-.94-2.08-1.41-3.41-1.41s-2.48,.47-3.41,1.41c-.94,.94-1.41,2.08-1.41,3.42s.47,2.48,1.42,3.41c.95,.94,2.08,1.41,3.4,1.41Z"/>
      <path class="cls-1" d="M18.9,65.11c-2.43,0-4.48-.84-6.11-2.51-1.62-1.66-2.44-3.7-2.44-6.08,0-1.14,.22-2.32,.66-3.51,.43-1.17,1.18-2.53,2.28-4.17l7.96-11.87,4.08,2.55-5.64,8.52h.01c2.13,0,4,.85,5.57,2.52,1.55,1.65,2.34,3.68,2.34,6.03s-.85,4.4-2.54,6.04c-1.68,1.64-3.76,2.47-6.18,2.47Zm2.93-25.46l-6.9,10.29c-1,1.49-1.7,2.76-2.07,3.76-.36,.97-.54,1.92-.54,2.82,0,1.87,.61,3.41,1.88,4.7,1.26,1.29,2.8,1.91,4.7,1.91s3.49-.63,4.8-1.91c1.31-1.28,1.95-2.8,1.95-4.64s-.59-3.39-1.81-4.68c-1.62-1.73-3.51-2.31-5.91-1.63l-2.55,.72,7.2-10.87-.75-.46Zm-2.86,22.64c-1.58,0-2.96-.57-4.09-1.69-1.14-1.12-1.71-2.51-1.71-4.11s.57-2.99,1.69-4.11c1.13-1.12,2.51-1.69,4.11-1.69s2.99,.57,4.11,1.69c1.13,1.13,1.7,2.51,1.7,4.11s-.58,2.99-1.72,4.11c-1.14,1.12-2.51,1.69-4.09,1.69Zm0-9.64c-1.08,0-1.97,.37-2.72,1.12-.75,.75-1.12,1.64-1.12,2.72s.37,1.96,1.13,2.71c1.53,1.51,3.88,1.51,5.41,0,.76-.75,1.13-1.64,1.13-2.71s-.37-1.97-1.12-2.72c-.75-.75-1.64-1.12-2.72-1.12Z"/>
    </g>
    <g>
      <path class="cls-1" d="M36.31,38.28c1.18,0,2.16,.37,2.93,1.12,.77,.75,1.15,1.69,1.15,2.83s-.38,2.09-1.15,2.85c-.77,.76-1.73,1.14-2.88,1.14s-2.13-.38-2.93-1.15c-.8-.77-1.2-1.71-1.2-2.81s.4-2.04,1.19-2.81,1.76-1.15,2.9-1.15Zm2.95,4.05c0-.8-.29-1.49-.87-2.06s-1.27-.85-2.06-.85-1.45,.28-1.98,.84c-.53,.56-.79,1.24-.79,2.04s.26,1.48,.79,2.04c.52,.56,1.18,.84,1.96,.84s1.47-.28,2.06-.85,.89-1.23,.89-1.99Z"/>
      <path class="cls-1" d="M36.36,47.2c-1.41,0-2.62-.48-3.61-1.43-1-.96-1.51-2.15-1.51-3.52s.5-2.56,1.49-3.52c.98-.95,2.18-1.43,3.58-1.43s2.66,.47,3.61,1.4c.96,.94,1.45,2.13,1.45,3.54s-.49,2.6-1.45,3.55c-.96,.94-2.16,1.42-3.57,1.42Zm-.03-6.8c-.52,0-.92,.17-1.26,.53-.35,.38-.52,.81-.52,1.37s.16,.99,.52,1.37c.69,.74,1.81,.73,2.62-.05,.4-.38,.58-.79,.58-1.28,0-.54-.18-.97-.58-1.36-.4-.39-.83-.57-1.37-.57Z"/>
    </g>
  </g>
  <rect class="cls-3" x="12.32" y="74.44" width="70.81" height="12.93" rx="3.4" ry="3.4"/>
  <g>
    <path class="cls-2" d="M29.79,81.6c-.38,0-.71,.01-.99,.03s-.54,.03-.76,.05v-.74c.27,.03,.58,.05,.94,.06,.35,.01,.78,.02,1.28,.02s.93,0,1.29-.02c.36-.01,.67-.03,.94-.06v.74c-.25-.03-.53-.04-.85-.06-.32-.01-.7-.02-1.13-.02v1.64c.67,0,1.25,0,1.73-.02,.48-.01,.91-.03,1.28-.06v.74c-.4-.03-.88-.05-1.42-.06-.55-.01-1.2-.02-1.96-.02-.37,0-.71,0-1.02,0-.31,0-.6,0-.86,.01-.26,0-.51,.01-.73,.02s-.43,.02-.63,.03v-.74c.37,.02,.78,.04,1.25,.05,.46,.01,1.01,.02,1.65,.02v-1.64Zm.97-3.71c.36,0,.67,0,.95,0,.27,0,.52,0,.73-.01,.21,0,.39-.01,.55-.02s.29-.02,.42-.03v1.46h-.65v-.86h-5.14v1.01h-.64v-1.61c.13,.01,.28,.02,.45,.03s.38,.01,.62,.02c.24,0,.52,0,.84,.01s.69,0,1.11,0c-.04-.16-.09-.31-.13-.44-.04-.14-.1-.29-.18-.45l.76-.19c.17,.37,.27,.73,.31,1.09Zm-1.13,1.48c.07,.03,.11,.06,.11,.09,0,.03-.04,.06-.13,.09-.03,.01-.07,.04-.14,.08s-.17,.12-.31,.22c-.14,.1-.33,.24-.56,.42-.23,.17-.52,.4-.88,.67-.05-.07-.13-.15-.24-.25-.1-.1-.2-.17-.28-.22,.39-.19,.75-.41,1.06-.67,.31-.26,.57-.54,.79-.84,.04,.03,.09,.07,.14,.11,.05,.04,.11,.08,.16,.12,.06,.04,.11,.08,.16,.1,.05,.03,.09,.05,.12,.07Zm3.28,1.57c-.37-.28-.75-.54-1.14-.79-.39-.24-.74-.44-1.06-.58l.42-.48c.16,.06,.34,.15,.53,.25s.39,.21,.59,.32c.2,.11,.4,.23,.59,.36,.19,.13,.38,.25,.55,.36l-.47,.55Z"/>
    <path class="cls-2" d="M36.4,78.37c-.11,.15-.21,.29-.3,.41-.09,.12-.19,.25-.28,.37-.1,.12-.2,.25-.32,.38-.11,.13-.24,.27-.38,.43-.04-.05-.08-.1-.12-.14s-.08-.08-.13-.11c-.05-.03-.1-.06-.16-.09-.06-.03-.13-.06-.22-.09,.52-.42,.93-.86,1.24-1.3,.31-.45,.53-.9,.67-1.35,.14,.08,.29,.15,.46,.22,.17,.07,.3,.11,.4,.12,.05,.01,.08,.03,.08,.05s-.02,.05-.06,.08c-.1,.06-.18,.13-.24,.19-.06,.06-.14,.16-.23,.28h3.26c.2,0,.37,0,.5,0,.14,0,.26,0,.36-.01,.1,0,.2-.01,.28-.03,.08-.01,.16-.03,.24-.04v.69c-.08,0-.15-.01-.23-.02-.08,0-.17-.01-.27-.02-.1,0-.22,0-.36,0-.14,0-.31,0-.52,0h-3.67Zm5.53,4.54c-.1,.37-.18,.66-.26,.86-.07,.2-.16,.34-.24,.4-.09,.06-.19,.07-.3,.01-.11-.06-.26-.16-.43-.3-.34-.27-.58-.65-.74-1.14-.16-.49-.24-1.14-.24-1.94h-3.18c-.22,0-.45,0-.67,.02-.22,.02-.42,.04-.59,.07v-.71c.1,.01,.22,.02,.36,.02s.31,0,.53,.01c.21,0,.47,0,.78,0,.31,0,.68,0,1.13,0,.39,0,.72,0,.99,0,.27,0,.5-.01,.68-.02s.33-.02,.44-.02,.2-.02,.26-.03c-.11,.62-.14,1.18-.08,1.66,.06,.48,.19,.89,.4,1.22,.09,.14,.17,.24,.23,.3s.12,.07,.16,.02c.04-.04,.07-.14,.09-.29,.02-.15,.03-.37,.03-.65,.1,.14,.21,.25,.31,.32,.11,.08,.22,.13,.35,.16Zm-1.31-3.31c-.08,0-.17-.01-.27-.02-.11,0-.25,0-.44-.01-.18,0-.42,0-.7,0h-1.92c-.22,0-.39,0-.52,0-.13,0-.24,.01-.32,.02-.08,0-.16,.01-.23,.02v-.64c.07,.01,.15,.02,.23,.03,.08,0,.19,.01,.33,.02,.14,0,.33,0,.56,0h.91c.39,0,.73,0,.99,0,.27,0,.49,0,.66,0s.32,0,.43-.02c.11,0,.21-.02,.29-.03v.63Z"/>
    <path class="cls-2" d="M44.28,79.37c-.01,.52-.03,.99-.06,1.4-.03,.41-.08,.79-.14,1.14-.07,.35-.15,.67-.26,.98-.11,.31-.24,.62-.41,.92-.1-.08-.22-.14-.35-.19-.13-.05-.26-.08-.38-.09,.17-.21,.3-.43,.41-.64,.11-.21,.19-.45,.26-.72,.07-.26,.13-.56,.17-.9,.04-.34,.08-.73,.11-1.19,0-.08,0-.2,.01-.34,0-.14,0-.3,0-.47v-.53c0-.18,0-.36,0-.53,0-.17,0-.32,0-.46s0-.25-.01-.33c.19,.03,.43,.04,.73,.04,.29,0,.61-.01,.96-.03,.34-.02,.7-.04,1.05-.08,.36-.03,.7-.07,1.02-.12,.32-.05,.61-.09,.86-.14,.25-.05,.44-.1,.57-.15,.01,.04,.03,.09,.05,.16,.02,.07,.05,.13,.08,.2,.03,.07,.06,.13,.09,.19s.05,.1,.07,.12c.07,.08,.09,.15,.06,.18-.03,.04-.1,.03-.22-.01-.05-.02-.24-.03-.55-.02-.31,0-.73,.04-1.26,.1l-.03,.94c.39,0,.73,0,1.02,0,.28,0,.53,0,.73-.01,.21,0,.38-.01,.52-.02s.26-.02,.37-.03v.71c-.11,0-.23-.02-.37-.03-.14-.01-.31-.02-.52-.02-.2,0-.45,0-.74-.01-.29,0-.63,0-1.03,0l-.03,.83c.49,0,.89,0,1.22-.02s.57-.03,.73-.06c-.01,.07-.02,.15-.02,.25s0,.2,0,.31v.99c0,.12,0,.24,0,.36s.01,.23,.02,.34h-.67v-1.68h-2.73v1.82h-.68c.02-.11,.03-.22,.03-.34,0-.12,0-.24,0-.36v-1.14c0-.22,0-.41-.02-.54,.11,.01,.3,.02,.56,.03,.26,.01,.58,.02,.94,.02l.03-.83h-2.18Zm3.03,1.84c.12-.01,.14,.04,.06,.15-.06,.08-.1,.24-.14,.49-.04,.28-.1,.53-.19,.75-.09,.22-.18,.4-.28,.52-.08,.11-.2,.22-.34,.33-.14,.11-.31,.22-.5,.32-.19,.1-.39,.19-.62,.27s-.46,.14-.71,.18c-.03-.09-.09-.2-.19-.32-.1-.12-.2-.22-.3-.29,.28,0,.55-.04,.8-.1s.47-.13,.67-.22,.36-.19,.5-.3,.23-.22,.29-.33c.07-.15,.13-.35,.16-.59,.03-.24,.03-.55-.01-.92,.04,.01,.09,.02,.16,.03,.07,0,.14,.01,.22,.02,.08,0,.15,0,.23,0h.18Zm-.8-3.3c-.19,.01-.39,.02-.62,.03-.22,0-.44,.02-.66,.02-.21,0-.41,.01-.58,.02-.17,0-.29,0-.37,0,0,.11,0,.22,0,.34s0,.28,0,.47h2.18l.03-.89Zm2.65,6.3c-.2-.2-.46-.41-.78-.62s-.69-.43-1.11-.64l.34-.48c.15,.07,.32,.15,.51,.25s.38,.2,.57,.31,.37,.21,.54,.31c.17,.1,.32,.19,.44,.26l-.53,.61Z"/>
    <path class="cls-2" d="M57.65,79.99c-.43-.02-.91-.04-1.46-.05-.55,0-1.2-.02-1.97-.02-.39,0-.76,0-1.08,0s-.63,0-.91,.01c-.28,0-.54,.01-.78,.02-.24,0-.46,.02-.67,.03v-.54c.21,.01,.44,.02,.68,.02,.24,0,.5,.01,.78,.02,.28,0,.58,0,.91,.01s.69,0,1.08,0c.77,0,1.43,0,1.97-.01,.55,0,1.03-.02,1.46-.04v.54Zm-3.19,3.43c.68,0,1.27,0,1.76-.01,.5,0,.94-.03,1.33-.05v.54c-.42-.02-.89-.04-1.43-.04-.54,0-1.18-.01-1.94-.01s-1.42,0-1.96,.01c-.54,0-1.02,.02-1.43,.04v-.54c.38,.03,.82,.04,1.32,.05,.5,0,1.08,.01,1.77,.01v-.44c-.54,0-1.01,.01-1.4,.03s-.74,.03-1.04,.06v-.58c.32,.03,.67,.05,1.05,.06,.38,.02,.84,.03,1.39,.03v-.46h-.85c-.23,0-.43,0-.6,0s-.31,0-.42,0c-.11,0-.22,0-.32,.01,.02-.16,.03-.32,.03-.49s0-.33,0-.49c0-.17,0-.34,0-.5,0-.16-.02-.32-.03-.47,.08,.01,.16,.02,.25,.03,.09,0,.22,.01,.4,.02s.41,0,.71,0,.69,0,1.18,0,.86,0,1.16,0,.53,0,.71-.01,.31-.01,.4-.02c.09,0,.17-.01,.23-.02-.02,.3-.02,.62-.02,.97,0,.16,0,.31,0,.48,0,.16,.01,.33,.02,.5-.08,0-.17,0-.26-.01-.1,0-.23,0-.39,0-.16,0-.37,0-.63,0h-.99v.46c.56,0,1.03,0,1.42-.02,.39-.02,.73-.04,1.04-.07v.58c-.31-.03-.66-.05-1.04-.06s-.86-.02-1.41-.02v.44Zm2.29-4.22c-.05,0-.12-.01-.21-.02-.09,0-.22,0-.4-.01s-.42,0-.72,0c-.3,0-.69,0-1.18,0s-.9,0-1.2,0c-.31,0-.55,0-.73,0-.18,0-.31,0-.4,.01-.08,0-.15,.01-.2,.02,.01-.17,.02-.34,.03-.5,0-.16,.01-.32,.01-.49,0-.18,0-.35-.01-.5,0-.15-.02-.31-.03-.46,.07,.01,.15,.02,.24,.03,.09,0,.23,.01,.41,.02,.18,0,.42,0,.71,0s.69,0,1.17,0,.85,0,1.15,0,.53,0,.71-.01c.18,0,.31-.01,.4-.02,.09,0,.17-.01,.23-.02,0,.15,0,.31-.01,.46,0,.15,0,.32,0,.5,0,.15,0,.32,0,.49,0,.17,0,.34,.02,.5Zm-2.86,1.45h-1.58v.39h1.58v-.39Zm0,.73h-1.58v.38h1.58v-.38Zm2.26-3.31v-.38h-3.82v.38h3.82Zm-3.82,.34v.41h3.82v-.41h-3.82Zm2.14,2.64h1.66v-.39h-1.66v.39Zm0,.72h1.66v-.38h-1.66v.38Z"/>
    <path class="cls-2" d="M60.37,84.2h-.74c.03-.24,.05-.52,.07-.84s.03-.63,.03-.92v-2.73c-.11,.19-.22,.38-.33,.57-.12,.19-.24,.39-.39,.61-.04-.1-.11-.21-.2-.32-.09-.11-.18-.2-.26-.26,.22-.26,.43-.53,.6-.83s.33-.6,.46-.9c.11-.26,.21-.54,.3-.84,.08-.3,.15-.56,.18-.8,.13,.06,.25,.11,.38,.15,.13,.04,.23,.08,.32,.1,.09,.03,.13,.05,.13,.08,0,.03-.04,.08-.12,.14-.1,.07-.25,.38-.45,.92v5.86Zm2.55-4.57c-.05,.52-.12,.99-.21,1.41s-.21,.8-.35,1.15c-.14,.35-.32,.67-.52,.96-.2,.29-.44,.57-.71,.84-.07-.09-.17-.17-.3-.25-.12-.08-.25-.15-.38-.19,.25-.2,.48-.41,.68-.64,.21-.23,.38-.5,.54-.8,.15-.31,.28-.66,.38-1.06,.1-.4,.18-.87,.23-1.41-.3,0-.59,.01-.86,.03-.27,.01-.5,.03-.71,.05v-.77c.18,.03,.4,.05,.67,.06,.27,.01,.58,.02,.94,.03,.03-.39,.03-.77,.02-1.14-.01-.37-.04-.7-.08-.97,.07,.02,.15,.03,.24,.04s.17,.02,.26,.03c.08,0,.16,.01,.24,.02,.07,0,.14,0,.18,0,.06,0,.09,.01,.1,.05s-.02,.08-.08,.11c-.08,.04-.13,.16-.14,.35-.01,.19-.02,.4-.04,.64-.02,.24-.04,.53-.06,.88h.68c.42,0,.77,0,1.07-.02,.3-.02,.57-.04,.82-.07v.77c-.22-.03-.47-.05-.74-.06-.27-.01-.58-.02-.93-.02v3.14c0,.11,0,.19,.01,.26,0,.06,.03,.11,.07,.14,.04,.03,.09,.05,.17,.06,.07,.01,.18,.02,.31,.02,.12,0,.22,0,.3-.02,.08-.02,.14-.06,.19-.13s.09-.18,.12-.32,.06-.33,.09-.58c.1,.12,.21,.21,.36,.28,.14,.07,.26,.11,.37,.12-.09,.3-.16,.53-.23,.7s-.15,.3-.25,.38-.23,.13-.39,.16c-.16,.02-.37,.03-.63,.03s-.47,0-.62-.02c-.15-.02-.26-.05-.33-.11-.07-.06-.12-.14-.14-.25-.02-.11-.03-.26-.03-.45v-3.4h-.31Zm1.61-.91c-.07-.07-.15-.16-.23-.24s-.17-.17-.27-.26c-.09-.08-.19-.17-.29-.25s-.19-.15-.28-.22l.47-.45c.17,.12,.35,.25,.54,.4,.19,.15,.37,.3,.53,.44l-.48,.57Z"/>
  </g>
</svg>