<?xml version="1.0" encoding="UTF-8"?>
<svg id="_图层_1" data-name="图层 1" xmlns="http://www.w3.org/2000/svg" viewBox="0 0 168.65 149.98">
  <defs>
    <style>
      .cls-1 {
        fill: #1490ff;
      }
    </style>
  </defs>
  <path class="cls-1" d="M9.35,58.34H26.01v8.33c0,4.58,3.75,8.33,8.33,8.33s8.33-3.75,8.33-8.33v-8.33h16.66c4.58,0,8.33-3.75,8.33-8.33V16.68c0-4.58-3.75-8.33-8.33-8.33h-16.66C42.67,3.77,38.92,.02,34.34,.02s-8.33,3.75-8.33,8.33H9.35c-4.58,0-8.33,3.75-8.33,8.33V50c0,4.58,3.75,8.33,8.33,8.33ZM51,25.01v16.66h-8.33V25.01h8.33Zm-33.32,0h8.33v16.66h-8.33V25.01ZM159.31,91.66c4.58,0,8.33-3.75,8.33-8.33s-3.75-8.33-8.33-8.33h-33.32c-4.58,0-8.33,3.75-8.33,8.33v58.32c0,4.58,3.75,8.33,8.33,8.33h33.32c4.58,0,8.33-3.75,8.33-8.33s-3.75-8.33-8.33-8.33h-24.99v-12.5h24.99c4.58,0,8.33-3.75,8.33-8.33s-3.75-8.33-8.33-8.33h-24.99v-12.5h24.99Zm-28.44-65.23c-1.63-1.63-3.76-2.44-5.89-2.44s-4.26,.81-5.89,2.44c-3.25,3.25-3.25,8.53,0,11.78l17.67,17.67s.02,.01,.02,.02c.38,.38,.8,.72,1.25,1.02,.21,.14,.44,.24,.66,.36,.26,.14,.5,.29,.77,.41,.29,.12,.58,.19,.87,.27,.23,.07,.45,.15,.68,.2,.54,.11,1.09,.17,1.63,.17s1.09-.06,1.63-.17c.23-.05,.45-.13,.68-.2,.29-.09,.59-.15,.88-.27,.27-.11,.51-.27,.77-.4,.22-.12,.45-.22,.67-.36,.45-.3,.87-.64,1.24-1.02,0,0,.02-.01,.02-.02l17.67-17.67c3.25-3.25,3.25-8.53,0-11.78-1.63-1.63-3.76-2.44-5.89-2.44s-4.27,.81-5.89,2.44l-3.45,3.45V8.33c0-4.6-3.73-8.33-8.33-8.33h-49.99c-4.6,0-8.33,3.73-8.33,8.33s3.73,8.33,8.33,8.33h41.65v13.21l-3.45-3.45Zm-54.87,106.87H34.34v-13.21l3.45,3.45c1.63,1.63,3.76,2.44,5.89,2.44s4.26-.81,5.89-2.44c3.25-3.25,3.25-8.53,0-11.78l-17.67-17.67c-.39-.39-.81-.73-1.27-1.04-.2-.13-.42-.22-.62-.34-.27-.15-.53-.31-.81-.43-.27-.11-.54-.17-.82-.25-.25-.07-.48-.17-.74-.22-.5-.1-1.02-.15-1.53-.15-.04,0-.07,0-.1,0s-.07,0-.1,0c-.51,0-1.02,.05-1.53,.15-.25,.05-.49,.14-.74,.22-.28,.08-.55,.14-.82,.25-.28,.12-.54,.28-.8,.42-.21,.12-.43,.21-.63,.34-.46,.3-.88,.65-1.27,1.04L2.44,111.76c-3.25,3.25-3.25,8.53,0,11.78,1.63,1.63,3.76,2.44,5.89,2.44s4.27-.81,5.89-2.44l3.45-3.45v21.54c0,4.6,3.73,8.33,8.33,8.33h49.99c4.6,0,8.33-3.73,8.33-8.33,0-4.6-3.72-8.33-8.33-8.33h0Z"/>
</svg>