<?xml version="1.0" encoding="UTF-8"?>
<svg id="_图层_1" data-name="图层 1" xmlns="http://www.w3.org/2000/svg" viewBox="0 0 96 96">
  <defs>
    <style>
      .cls-1 {
        fill: #fff;
      }

      .cls-2 {
        fill: #1490ff;
      }
    </style>
  </defs>
  <rect class="cls-2" width="96" height="96" rx="16.09" ry="16.09"/>
  <path class="cls-1" d="M19.23,41.66h6.64v3.32c0,1.82,1.49,3.32,3.32,3.32s3.32-1.49,3.32-3.32v-3.32h6.64c1.82,0,3.32-1.49,3.32-3.32v-13.28c0-1.82-1.49-3.32-3.32-3.32h-6.64c0-1.82-1.49-3.32-3.32-3.32s-3.32,1.49-3.32,3.32h-6.64c-1.82,0-3.32,1.49-3.32,3.32v13.27c0,1.82,1.49,3.32,3.32,3.32h0Zm16.59-13.27v6.64h-3.32v-6.64h3.32Zm-13.27,0h3.32v6.64h-3.32v-6.64Zm56.41,26.55c1.82,0,3.32-1.49,3.32-3.32s-1.49-3.32-3.32-3.32h-13.27c-1.82,0-3.32,1.49-3.32,3.32v23.23c0,1.82,1.49,3.32,3.32,3.32h13.27c1.82,0,3.32-1.49,3.32-3.32s-1.49-3.32-3.32-3.32h-9.95v-4.98h9.95c1.82,0,3.32-1.49,3.32-3.32s-1.49-3.32-3.32-3.32h-9.95v-4.98h9.95Zm-11.33-25.98c-.65-.65-1.5-.97-2.35-.97s-1.7,.32-2.35,.97c-1.29,1.29-1.29,3.4,0,4.69l7.04,7.04s0,0,0,0c.15,.15,.32,.29,.5,.41,.08,.06,.18,.1,.26,.14,.1,.06,.2,.12,.31,.16,.12,.05,.23,.08,.35,.11,.09,.03,.18,.06,.27,.08,.22,.04,.43,.07,.65,.07s.43-.02,.65-.07c.09-.02,.18-.05,.27-.08,.12-.04,.23-.06,.35-.11,.11-.04,.2-.11,.31-.16,.09-.05,.18-.09,.27-.14,.18-.12,.35-.25,.49-.41,0,0,0,0,0,0l7.04-7.04c1.29-1.29,1.29-3.4,0-4.69-.65-.65-1.5-.97-2.35-.97s-1.7,.32-2.35,.97l-1.37,1.37v-8.59c0-1.83-1.49-3.32-3.32-3.32h-19.91c-1.83,0-3.32,1.49-3.32,3.32s1.49,3.32,3.32,3.32h16.59v5.26l-1.37-1.37h0Zm-21.86,42.57H29.19v-5.26l1.37,1.37c.65,.65,1.5,.97,2.35,.97s1.7-.32,2.35-.97c1.29-1.29,1.29-3.4,0-4.69l-7.04-7.04c-.16-.16-.32-.29-.51-.41-.08-.05-.17-.09-.25-.14-.11-.06-.21-.12-.32-.17-.11-.04-.22-.07-.33-.1-.1-.03-.19-.07-.29-.09-.2-.04-.41-.06-.61-.06h-.08c-.2,0-.41,.02-.61,.06-.1,.02-.2,.06-.29,.09-.11,.03-.22,.06-.33,.1-.11,.05-.22,.11-.32,.17-.08,.05-.17,.08-.25,.14-.18,.12-.35,.26-.51,.41l-7.04,7.04c-1.29,1.29-1.29,3.4,0,4.69,.65,.65,1.5,.97,2.35,.97s1.7-.32,2.35-.97l1.37-1.37v8.58c0,1.83,1.49,3.32,3.32,3.32h19.91c1.83,0,3.32-1.49,3.32-3.32s-1.48-3.32-3.32-3.32h0Z"/>
</svg>