<?xml version="1.0" encoding="utf-8"?>
<!-- Generator: Adobe Illustrator 26.4.1, SVG Export Plug-In . SVG Version: 6.00 Build 0)  -->
<svg version="1.1" id="图层_1" xmlns="http://www.w3.org/2000/svg" xmlns:xlink="http://www.w3.org/1999/xlink" x="0px" y="0px"
	 viewBox="0 0 96 96" style="enable-background:new 0 0 96 96;" xml:space="preserve">
<style type="text/css">
	.st0{fill:#FFFFFF;}
</style>
<path class="st0" d="M46.5,39.1l-1.4-8.5l-23.9,0.5l-6.4,33.6l8.3,0.7c1.5-8.9,2.9-17.8,4.4-26.7L46.5,39.1z"/>
<path class="st0" d="M31,44.6c-0.6,1.7-1.2,3.5-1.9,5.3l10.4,1.9L37,65l15.3-4.1l0.8-6l-8.5,1.9l2.8-9.8L31,44.6z"/>
<path class="st0" d="M55,45.7c0.1,6.6,0.2,13.2,0.3,19.7h6.9c-0.2-6.6-0.3-13.2-0.5-19.7H55z"/>
<path class="st0" d="M64.4,45.9l0.3,5.2l9.1-0.6c-0.8,4.9-1.5,9.8-2.3,14.8H78c1.1-6.9,2.1-13.8,3.2-20.8L64.4,45.9z"/>
</svg>
