<svg xmlns="http://www.w3.org/2000/svg" xmlns:xlink="http://www.w3.org/1999/xlink" width="32" height="32" viewBox="0 0 32 32" fill="none"><g opacity="1" transform="translate(0 0)  rotate(0 16 15.999999999999998)"><path id="矩形 1" fill-rule="evenodd" transform="translate(0 0)  rotate(0 16 15.999999999999998)" opacity="1" d="M0,32L32,32L32,0L0,0L0,32Z " /><g opacity="1" transform="translate(5 9.135999999999967)  rotate(0 11 6.864000000000001)"><path id="分组 1" fill-rule="evenodd" style="fill:#FFFFFF" transform="translate(0 0)  rotate(0 11 6.864000000000001)" opacity="1" d="M3.7 0C1.67 0 0 1.58 0 3.7L0 10.03C0 11.97 1.58 13.73 3.7 13.73L9.42 13.73L8.89 11.62L3.96 10.38C3.52 10.3 3.17 9.86 3.17 9.42L3.17 4.14C3.17 3.61 3.52 3.26 3.96 3.17L8.89 2.02L9.42 0L3.7 0Z M13.026 2.11L17.956 3.26C18.396 3.26 18.746 3.7 18.746 4.22L18.746 9.5C18.746 10.03 18.396 10.38 17.956 10.47L13.026 11.62L12.496 13.73L18.306 13.73C20.236 13.73 21.996 12.14 21.996 10.03L21.996 3.61C21.916 1.58 20.326 0 18.306 0L12.496 0L13.026 2.11Z " /><path id="路径 12" fill-rule="evenodd" style="fill:#FFFFFF" transform="translate(8.88799999999992 6.51200000000008)  rotate(0 2.0680000000000005 0.26400000000000023)" opacity="1" d="M0,0.53L4.14,0.53L4.14,0L0,0L0,0.53Z " /></g></g></svg>