<?xml version="1.0" encoding="UTF-8"?>
<svg id="_图层_1" data-name="图层 1" xmlns="http://www.w3.org/2000/svg" viewBox="0 0 96 96">
  <defs>
    <style>
      .cls-1, .cls-2 {
        fill: #fff;
      }

      .cls-2 {
        stroke: #fff;
        stroke-miterlimit: 10;
        stroke-width: 3px;
      }
    </style>
  </defs>
  <path class="cls-1" d="M72.62,24.28h-19.26c.57,2.27,1.1,4.34,1.55,6.42,.1,.64,.64,1.13,1.28,1.17l15.45,3.4c2.01,.27,3.45,2.09,3.25,4.12v17.22c.2,2.04-1.26,3.86-3.29,4.12l-15.56,3.44c-.38,0-.87,.34-.98,.64-.64,2.23-1.17,4.49-1.78,6.91h19.26c6.98,.32,12.9-5.08,13.22-12.06,.02-.37,.02-.75,0-1.12v-21.11c.28-6.98-5.16-12.87-12.14-13.14-.33-.01-.67-.01-1,0Zm-32.71,39.88l-15.56-3.47c-1.97-.27-3.39-2.02-3.25-4v-17.34c-.18-2.02,1.27-3.82,3.29-4.08l15.45-3.44c.38,0,.98-.38,1.06-.68,.64-2.23,1.17-4.49,1.74-6.8H22.27c-6.55,.25-11.8,5.5-12.05,12.05v22.96c.1,6.82,5.64,12.31,12.46,12.35h19.98c-.6-2.34-1.1-4.61-1.74-6.8-.21-.39-.59-.67-1.02-.76Z"/>
  <path class="cls-2" d="M59.63,48.61c0-.98,0-1.67-1.38-1.67h-20.73c-1.15,0-1.15,.69-1.15,1.67s0,1.61,1.44,1.55h20.62c.92,0,1.26-.52,1.21-1.55Z"/>
</svg>