<?xml version="1.0" encoding="UTF-8"?>
<svg id="_图层_1" data-name="图层 1" xmlns="http://www.w3.org/2000/svg" viewBox="0 0 96 96">
  <defs>
    <style>
      .cls-1 {
        fill: #e81f1f;
      }

      .cls-2 {
        fill: #e81e1f;
      }

      .cls-3 {
        fill: #1e69e0;
      }
    </style>
  </defs>
  <path class="cls-3" d="M64.25,32.14c1.52-1.51,1.52-3.97,0-5.48l-5.58-5.58h0c-1.48-1.47-4.02-4.01-7.61-7.6-1.69-1.65-4.43-1.64-6.11,.04L13.5,44.96c-1.69,1.69-1.69,4.42,0,6.1l31.44,31.42c1.69,1.69,4.42,1.69,6.11,0l13.19-13.18c1.52-1.51,1.52-3.97,0-5.48-1.52-1.51-3.97-1.51-5.49,0l-9.98,10c-.42,.42-1.06,.42-1.48,0l-25.12-25.09c-.42-.42-.42-1.06,0-1.48l25.11-25.09s.07-.06,.1-.09c.42-.33,.99-.3,1.37,.09l10,9.99c1.52,1.52,3.98,1.52,5.49,0Z"/>
  <path class="cls-2" d="M39.67,48.17c0,4.68,3.8,8.48,8.49,8.48s8.49-3.8,8.49-8.48-3.8-8.48-8.49-8.48-8.49,3.8-8.49,8.48Z"/>
  <path class="cls-1" d="M82.5,45.08l-9.82-9.77c-1.52-1.51-3.98-1.51-5.49,0-1.52,1.51-1.52,3.97,0,5.48l6.63,6.62c.42,.42,.42,1.06,0,1.48l-6.53,6.53c-1.52,1.51-1.52,3.97,0,5.48,1.52,1.51,3.97,1.51,5.49,0l9.73-9.72c1.69-1.69,1.69-4.41,0-6.1h0Z"/>
</svg>