<?xml version="1.0" encoding="UTF-8"?>
<svg id="_图层_1" data-name="图层 1" xmlns="http://www.w3.org/2000/svg" viewBox="0 0 96 96">
  <defs>
    <style>
      .cls-1 {
        fill: #fff;
      }
    </style>
  </defs>
  <path class="cls-1" d="M35.85,32.99c1.09,.91,2.55,1.46,3.82,1.27,1.46,0,2.73-.73,3.82-1.64,1.27-1.09,2.18-2.55,2.91-4.18,1.27-3.09,1.27-6.91,.18-10.19-.73-2.18-2-4.18-3.82-5.46-1.09-.73-2.73-1.09-4.18-.91-.91,.18-1.82,.55-2.73,1.09-1.64,1.09-2.73,2.91-3.46,4.73-.91,3.27-1.09,6.55-.18,9.82,.73,2,1.82,4,3.64,5.46h0Zm18.19,.18c1.27,1.09,2.91,1.82,4.55,1.82,1.46,.18,2.73-.18,4-.91,1.27-.73,2.37-1.82,3.09-3.09,.91-1.46,1.64-2.91,2.18-4.55,.36-1.27,.55-2.73,.36-4.18-.18-2-1.09-3.82-2.37-5.46-.91-1.09-2-2.18-3.27-2.73-.91-.36-2-.73-2.91-.55-1.27,.18-2.37,.91-3.27,1.64-1.27,1.09-2.37,2.37-3.09,3.82-.73,1.27-1.46,2.73-1.64,4.37-.18,1.82-.18,3.64,.18,5.28,.36,1.64,.91,3.27,2.18,4.55h0Zm-25.29,14.92c1.27-1.09,2-2.55,2.55-4,.73-2.37,.73-4.73,.55-7.1,0-.91-.36-1.82-.73-2.73-.91-2-2.55-3.82-4.55-4.91-1.64-.73-3.27-1.09-4.73-.73-1.82,.18-3.27,1.46-4.37,2.91-1.46,2-2.18,4.55-2.55,6.91-.18,1.46,0,2.91,.36,4.37,.55,2.18,1.64,4.18,3.27,5.64,1.27,1.09,2.91,1.64,4.55,1.64,2,0,4-.55,5.64-2h0Zm52.4-5.46c-.18-1.46-.55-2.73-1.27-4-.73-1.46-2-2.91-3.46-3.64-1.64-.91-3.64-1.09-5.46-.91-.91,.18-2,.36-2.91,.91-1.27,.73-2.18,2-2.91,3.46-.73,1.82-1.09,3.82-1.09,5.82,0,1.82,0,3.82,.55,5.64,.36,1.27,1.09,2.73,2.37,3.46,1.27,1.09,2.91,1.46,4.55,1.64,1.27,.18,2.73,.18,4-.18,1.27-.36,2.55-1.09,3.27-2.18,.91-1.09,1.46-2.55,1.64-3.82,.91-2.18,.73-4.18,.73-6.19h0Zm-5.09,27.47c-.18-2.55-1.46-5.09-3.27-7.1-.36-.36-.73-.73-1.27-1.09-2.37-2-4.73-4.18-7.1-6.37-2.37-2.37-4.55-4.91-6.55-7.64-1.46-2.37-3.46-4.55-6.19-5.82-1.64-.73-3.64-1.09-5.46-.91-3.27,.36-6.19,2.18-8.19,4.73-.55,.55-.91,1.27-1.27,2-1.46,2.18-3.27,4.37-5.28,6.19-1.09,1.09-2.18,2-3.27,2.91-.55,.55-1.27,1.09-1.82,1.64-2.18,1.64-4.37,3.82-5.64,6.19-.91,1.64-1.46,3.46-1.64,5.46,0,1.64,.18,3.27,.73,4.73,.55,1.64,1.27,3.27,2.37,4.55,1.82,2.18,4.55,3.64,7.28,3.82,3.46,.18,6.91,0,10.19-.55,1.46-.18,2.91-.73,4.55-.91,3.27-.36,6.55-.18,9.64,.73,2.55,.91,5.28,1.27,8.01,1.46,2.73,.18,5.64-.18,8.19-1.64,1.82-.91,3.27-2.55,4.18-4.37,1.46-2.37,2.18-5.09,1.82-8.01h0Zm-30.56,7.46h-8.37c-.91,0-1.82,0-2.73-.18-1.82-.36-3.46-1.46-4.55-3.09-.91-1.09-1.46-2.37-1.64-3.82-.18-1.45-.18-2.92,0-4.37,.36-1.64,1.27-3.09,2.37-4.18,.91-.91,2.18-1.64,3.46-2.18,.55-.18,1.09-.36,1.64-.36h4.91v-6.91h4.73c.18,8.55,.18,16.92,.18,25.11h0Zm18.74,0h-11.46c-1.27-.18-2.37-.55-3.27-1.27-1.09-.91-1.64-2.37-1.64-3.64v-12.37h4.73v11.46c0,.55,.18,.91,.55,1.27,.36,.36,.91,.55,1.46,.55h4.91v-13.46h4.73v17.47h0Z"/>
  <path class="cls-1" d="M35.49,64.1c-.91,.36-1.82,1.09-2.37,2.18-.36,.91-.55,1.82-.55,2.73,0,1.09,.36,2.18,.91,3.09,.73,1.09,2,1.82,3.27,1.64h3.82v-9.82h-4.18c-.18-.18-.55,0-.91,.18h0Z"/>
</svg>