<svg width="128" height="128" viewBox="0 0 128 128" fill="none" xmlns="http://www.w3.org/2000/svg">
<rect width="128" height="128"/>
<path d="M92.2 55.0515C92.6667 55.0515 94.5333 54.5828 94.5333 54.5828L95.4667 61.6137L93.6 62.0825C93.6 61.145 92.2 55.5203 92.2 55.0515ZM95.9333 54.1141L96.8667 61.6137H99.6667C99.2 58.8014 98.2667 54.1141 98.2667 54.1141H95.9333ZM94.0667 64.4261C94.0667 64.4261 98.2667 63.4886 99.6667 63.9574C100.6 66.7697 102 82.7065 102 83.1752C101.067 83.1752 97.8 83.6439 97.8 83.6439C97.3333 82.7065 94.0667 65.3636 94.0667 64.4261V64.4261ZM109.467 55.0515H111.8C111.8 55.5203 112.267 62.0825 111.8 62.0825H109.933C109.933 61.6137 109.467 55.5203 109.467 55.0515ZM112.733 55.0515V62.5512H115.533V55.0515C114.6 55.0515 113.667 54.5828 112.733 55.0515ZM109.933 64.8948C109.933 64.8948 114.133 64.4261 115.533 64.8948C116 68.1759 116 83.6439 116 84.1126H111.8C111.8 83.1752 109.933 65.3635 109.933 64.8948V64.8948ZM100.133 45.677C102.467 58.3326 104.333 80.3628 104.8 81.769H109C107.133 68.1759 105.733 46.1457 105.733 45.677C105.267 44.7395 100.133 45.677 100.133 45.677V45.677ZM94.5333 76.1443C94.0667 72.3945 81.4667 68.6446 74 69.5821C74 69.5821 73.0667 61.6137 72.6 54.1141C72.1333 47.5519 72.6 40.9897 72.6 40.0523C72.1333 39.5836 67 42.3959 64.2 43.3334C64.2 43.3334 67.4667 57.3952 69.8 86.925C69.8 86.925 73.5333 87.3937 80.0667 85.9875C87.5333 84.5814 95 80.8316 94.5333 76.1443V76.1443ZM79.1333 82.2377L77.7333 74.2694C78.2 74.2694 84.7333 76.613 85.6667 77.0817C85.6667 77.5505 79.1333 82.2377 79.1333 82.2377V82.2377ZM39 55.0515C39.4667 55.0515 41.3333 54.5828 41.3333 54.5828L42.2667 61.6137C41.8 61.6137 40.4 62.0825 40.4 62.0825C40.4 61.145 39 55.5203 39 55.0515V55.0515ZM42.7333 54.1141L43.6667 61.6137H46.4667C46 58.8014 45.5333 54.1141 45.5333 54.1141H42.7333ZM40.8667 64.4261C40.8667 64.4261 45.0667 63.4886 46.4667 63.9574C47.4 66.7697 48.8 82.7065 48.8 83.1752C47.8667 83.1752 44.6 83.6439 44.6 83.6439C44.1333 82.7065 40.8667 65.3636 40.8667 64.4261V64.4261ZM56.2667 55.0515H58.6C58.6 55.5203 59.0667 62.0825 58.6 62.0825H56.7333C56.7333 61.6137 56.2667 55.5203 56.2667 55.0515ZM60 55.0515V62.5512H62.8V55.0515C61.8667 55.0515 60.9333 54.5828 60 55.0515ZM56.7333 64.8948C56.7333 64.8948 60.9333 64.4261 62.3333 64.8948C62.8 68.1759 62.8 83.6439 62.8 84.1126H58.6C58.6 83.1752 56.7333 65.3635 56.7333 64.8948V64.8948ZM46.9333 45.677C49.2667 58.3326 51.1333 80.3628 51.6 81.769H55.8C54.4 68.1759 53 46.1457 53 45.2083C52.0667 44.7396 46.9333 45.677 46.9333 45.677ZM41.3333 76.1443C40.8667 72.3945 28.2667 68.6446 20.8 69.5821C20.8 69.5821 19.8667 61.6137 19.4 54.1141C18.9333 47.5519 19.4 40.9897 19.4 40.0523C18.9333 39.5836 13.8 42.3959 11 43.3334C11 43.3334 14.2667 57.3952 16.6 86.925C16.6 86.925 20.3333 87.3937 26.8667 85.9875C33.4 84.5814 42.2667 80.8316 41.3333 76.1443ZM25.9333 82.2377L25 74.2694C25.4667 74.2694 32 76.613 32.9333 77.0817C32.4667 77.5505 25.9333 82.2377 25.9333 82.2377" fill="white"/>
</svg>
