<?xml version="1.0" encoding="UTF-8"?>
<svg id="_图层_1" data-name="图层 1" xmlns="http://www.w3.org/2000/svg" xmlns:xlink="http://www.w3.org/1999/xlink" viewBox="0 0 96 96">
  <defs>
    <style>
      .cls-1 {
        fill: url(#_未命名的渐变_8-3);
      }

      .cls-2 {
        fill: url(#_未命名的渐变_8-2);
      }

      .cls-3 {
        fill: url(#_未命名的渐变_8);
      }
    </style>
    <linearGradient id="_未命名的渐变_8" data-name="未命名的渐变 8" x1="41.95" y1="25.27" x2="28.33" y2="66.84" gradientUnits="userSpaceOnUse">
      <stop offset="0" stop-color="#18add0"/>
      <stop offset=".5" stop-color="#138bc1"/>
      <stop offset="1" stop-color="#1b5fa3"/>
    </linearGradient>
    <linearGradient id="_未命名的渐变_8-2" data-name="未命名的渐变 8" x1="28.07" y1="70.98" x2="73.5" y2="70.98" xlink:href="#_未命名的渐变_8"/>
    <linearGradient id="_未命名的渐变_8-3" data-name="未命名的渐变 8" x1="72.34" y1="57.5" x2="53.14" y2="40.79" xlink:href="#_未命名的渐变_8"/>
  </defs>
  <path class="cls-3" d="M33.36,73.94c3.62,1.32,6.98-.39,8.28-1.06,1.38-.71,2.43-1.56,3.17-2.3-.05-15.35-.09-30.69-.14-46.04-.03-.69-.18-1.88-.83-3.18-.78-1.56-1.9-2.46-2.48-2.88-2.99-2.07-5.98-4.13-8.97-6.2-.23-.15-.75-.44-1.47-.48-.64-.03-1.13,.15-1.41,.27-.54,.25-.86,.6-.92,.67-.07,.08-.38,.44-.58,1.06-.22,.69-.17,1.27-.16,1.36,.07,1.02,.09,22.43,.1,52.28,.03,.28,.07,.62,.13,1.01,.69,1.68,2.22,4.36,5.29,5.49Z"/>
  <path class="cls-2" d="M72.67,62.25c-1.5-3.14-4.48-4.34-5.94-4.76l-21.92,13.23s0-.09,0-.14c-.74,.73-1.78,1.59-3.17,2.3-1.3,.67-4.66,2.38-8.28,1.06-3.07-1.12-4.61-3.8-5.29-5.49,.33,2.16,1.27,5.83,4.13,9.26,.25,.3,5.83,6.78,14.47,6.75,4.5-.01,7.61-1.78,13.8-5.3,4.53-2.57,7.98-5.23,10.33-7.21,.39-.45,1.3-1.53,2.24-3.12,.7-2.19,.61-4.55-.37-6.6Z"/>
  <path class="cls-1" d="M75.92,57.18c-.38-4.63-2.43-8-3.12-9.05-1.81-2.77-3.92-4.41-5.41-5.55-1.33-1.02-2.22-1.5-7.93-4.62-.83-.45-4.24-2.32-4.96-2.71-1.07-.86-2.56-.9-3.62-.12-.95,.7-1.39,1.93-1.1,3.11,.6,1.65,1.13,3.02,1.52,4.01,.92,2.33,1.42,3.43,2.49,6.08,.65,1.6,1.16,2.94,1.52,3.87,.39,.54,1.01,1.29,1.94,1.94,1.39,.97,2.65,1.16,4.15,1.52,1.33,.32,3.18,.86,5.39,1.8-.02,.01-.05,.03-.07,.04,1.47,.42,4.44,1.62,5.94,4.76,.99,2.05,1.08,4.42,.37,6.6,1.58-2.66,3.28-6.73,2.88-11.68Z"/>
</svg>