<svg xmlns="http://www.w3.org/2000/svg" xmlns:xlink="http://www.w3.org/1999/xlink" width="128" height="128" viewBox="0 0 128 128" fill="none"><defs><rect id="path_0" x="0" y="0" width="128" height="128" /><path id="path_1"
        transform="translate(0 0) rotate(0 40.5 47)"
        d="M32.92,35.1C14.27,35.35 0,47.81 0,64.5C0,80.79 13.21,94 29.5,94C45.63,94 58.73,81.06 59,65L59,31.48C65.1,36.06 72.49,38.86 80.38,38.99L81,39L81,23L80.66,23C69.3,22.79 59.21,12.23 59,0.36L59,0L43,0L43,64.5L43,64.81C42.83,72.12 36.85,78 29.5,78C22.04,78 16,71.96 16,64.5C16,57.05 22.91,51.09 33.49,51.09L33.49,35.09L32.92,35.1Z" /></defs><g opacity="1" transform="translate(0 0)  rotate(0 64 64)"><mask id="bg-mask-0" fill="white"><use xlink:href="#path_0"></use></mask><g mask="url(#bg-mask-0)" ><g opacity="1" transform="translate(0 0)  rotate(0 64 64)"><path id="3" fill-rule="evenodd" style="fill:#F91955" transform="translate(25 20)  rotate(0 40.5 47)" opacity="1" d="M29.5,94C45.63,94 58.73,81.06 59,65L59,31.48C65.1,36.06 72.49,38.86 80.38,38.99L81,39L81,23L80.66,23C69.3,22.79 59.21,12.23 59,0.36L59,0L43,0L43,64.5L43,64.81C42.83,72.12 36.85,78 29.5,78C22.04,78 16,71.96 16,64.5C16,57.05 22.91,51.09 33.49,51.09L33.49,35.09L32.92,35.1C14.27,35.35 0,47.81 0,64.5C0,80.79 13.21,94 29.5,94Z " /><path id="path-1" fill-rule="evenodd" style="fill:#25EDE8" transform="translate(21 15)  rotate(0 40.5 47)" opacity="1" d="M32.92,35.1C14.27,35.35 0,47.81 0,64.5C0,80.79 13.21,94 29.5,94C45.63,94 58.73,81.06 59,65L59,31.48C65.1,36.06 72.49,38.86 80.38,38.99L81,39L81,23L80.66,23C69.3,22.79 59.21,12.23 59,0.36L59,0L43,0L43,64.5L43,64.81C42.83,72.12 36.85,78 29.5,78C22.04,78 16,71.96 16,64.5C16,57.05 22.91,51.09 33.49,51.09L33.49,35.09L32.92,35.1Z " /><g opacity="1" transform="translate(21 15)  rotate(0 40.5 47)"><mask id="mask-1" fill="white"><use xlink:href="#path_1"></use></mask><g mask="url(#mask-1)"></g><g mask="url(#mask-1)"><path id="1" fill-rule="evenodd" style="fill:#FFFFFF" transform="translate(4 4)  rotate(0 40.5 47)" opacity="1" d="M59,0L43,0L43,64.5L43,64.81C42.83,72.12 36.85,78 29.5,78C22.04,78 16,71.96 16,64.5C16,57.05 22.91,51.09 33.49,51.09L33.49,35.09L32.92,35.1C14.27,35.35 0,47.81 0,64.5C0,80.79 13.21,94 29.5,94C45.63,94 58.73,81.06 59,65L59,31.48C65.1,36.06 72.49,38.86 80.38,38.99L81,39L81,23L80.66,23C69.3,22.79 59.21,12.23 59,0.36L59,0Z " /></g></g></g></g></g></svg>