<?xml version="1.0" encoding="UTF-8"?>
<svg id="_图层_1" data-name=" 图层 1" xmlns="http://www.w3.org/2000/svg" viewBox="0 0 39.72 68.01">
  <defs>
    <style>
      .cls-1 {
        fill: #1973e8;
        fill-rule: evenodd;
      }
    </style>
  </defs>
  <g id="Page-1">
    <path id="f" class="cls-1" d="M34.72,0c3.76,0,5,1.45,5,5v4.17c0,3.56-1.45,5-5,5h-6.33c-11,0-14.17,3.17-14.17,14.17v1.42h15.49c3.56,0,5,1.45,5,5v2.04c0,3.56-1.45,5-5,5H14.22v21.21c0,3.64-1.47,5-5,5H5.05c-3.56,0-5.4-1.76-5-5V28.34C.05,7.39,7.44,0,28.39,0,28.39,0,34.72,0,34.72,0Z"/>
  </g>
</svg>