<?xml version="1.0" encoding="UTF-8"?>
<svg id="_图层_1" data-name="图层 1" xmlns="http://www.w3.org/2000/svg" viewBox="0 0 96 96">
  <defs>
    <style>
      .cls-1 {
        fill: #1973e8;
        fill-rule: evenodd;
      }
    </style>
  </defs>
  <g id="Page-1">
    <path id="f" class="cls-1" d="M62.86,13.99c3.76,0,5,1.45,5,5v4.17c0,3.56-1.45,5-5,5h-6.33c-11,0-14.17,3.17-14.17,14.17v1.42s15.49,0,15.49,0c3.56,0,5,1.45,5,5v2.04c0,3.56-1.45,5-5,5h-15.49s0,21.21,0,21.21c0,3.64-1.47,5-5,5h-4.17c-3.56,0-5.4-1.76-5-5V42.33c0-20.95,7.39-28.34,28.34-28.34h6.33Z"/>
  </g>
</svg>