<?xml version="1.0" encoding="UTF-8"?>
<svg id="_图层_1" data-name="图层 1" xmlns="http://www.w3.org/2000/svg" viewBox="0 0 96 96">
  <defs>
    <style>
      .cls-1 {
        fill: #191717;
      }
    </style>
  </defs>
  <path class="cls-1" d="M48.03,12.47C27.89,12.47,11.6,28.76,11.6,48.9c0,16.1,10.43,29.73,24.91,34.56,1.81,.36,2.47-.78,2.47-1.75,0-.84-.06-3.74-.06-6.75-10.13,2.17-12.24-4.34-12.24-4.34-1.63-4.22-4.04-5.31-4.04-5.31-3.32-2.23,.24-2.23,.24-2.23,3.68,.24,5.61,3.74,5.61,3.74,3.26,5.55,8.5,3.98,10.61,3.02,.3-2.35,1.27-3.98,2.29-4.89-8.08-.84-16.59-3.98-16.59-17.97,0-3.98,1.45-7.24,3.74-9.77-.36-.9-1.63-4.64,.36-9.65,0,0,3.08-.96,10.01,3.74,2.89-.78,6.03-1.21,9.11-1.21s6.21,.42,9.11,1.21c6.94-4.7,10.01-3.74,10.01-3.74,1.99,5.01,.72,8.74,.36,9.65,2.35,2.53,3.74,5.79,3.74,9.77,0,13.99-8.5,17.07-16.65,17.97,1.33,1.15,2.47,3.32,2.47,6.75,0,4.89-.06,8.81-.06,10.01,0,.96,.66,2.11,2.47,1.75,14.47-4.82,24.91-18.45,24.91-34.56,.06-20.14-16.28-36.43-36.37-36.43Z"/>
  <path class="cls-1" d="M25.41,64.76c-.06,.18-.36,.24-.6,.12s-.42-.36-.3-.54c.06-.18,.36-.24,.6-.12s.36,.36,.3,.54Zm1.45,1.63c-.18,.18-.54,.06-.72-.18-.24-.24-.3-.6-.12-.78s.48-.06,.72,.18c.24,.3,.3,.66,.12,.78Zm1.45,2.11c-.24,.18-.6,0-.78-.3-.24-.3-.24-.72,0-.84,.24-.18,.6,0,.78,.3,.24,.3,.24,.66,0,.84Zm1.99,2.05c-.18,.24-.6,.18-.96-.12-.3-.3-.42-.72-.18-.9,.18-.24,.6-.18,.96,.12,.3,.24,.36,.66,.18,.9Zm2.71,1.15c-.06,.3-.48,.42-.9,.3-.42-.12-.66-.48-.6-.72,.06-.3,.48-.42,.9-.3,.42,.12,.66,.42,.6,.72Zm2.96,.24c0,.3-.36,.54-.78,.54s-.78-.24-.78-.54,.36-.54,.78-.54,.78,.24,.78,.54Zm2.77-.48c.06,.3-.24,.6-.66,.66s-.78-.12-.84-.42,.24-.6,.66-.66,.78,.12,.84,.42Z"/>
</svg>