<?xml version="1.0" encoding="UTF-8"?>
<svg id="_图层_1" data-name="图层 1" xmlns="http://www.w3.org/2000/svg" viewBox="0 0 96 96">
  <defs>
    <style>
      .cls-1 {
        fill: #1980ff;
      }
    </style>
  </defs>
  <path class="cls-1" d="M46.4,80.44c-17.92,0-32.44-14.52-32.44-32.44S28.49,15.56,46.4,15.56s32.44,14.52,32.44,32.44-14.52,32.44-32.44,32.44Zm0-7.21c13.93,0,25.23-11.3,25.23-25.23s-11.3-25.23-25.23-25.23-25.23,11.3-25.23,25.23,11.3,25.23,25.23,25.23Z"/>
  <path class="cls-1" d="M31.99,40.79c0,1.99,1.61,3.6,3.6,3.6s3.6-1.61,3.6-3.6-1.61-3.6-3.6-3.6-3.6,1.61-3.6,3.6Z"/>
  <path class="cls-1" d="M15.12,61.45c.32,.27,.84,.56,1.57,.82,1.77,.65,4.38,1.05,7.62,1.13,6.98,.18,16.16-1.08,25.67-3.63,9.51-2.55,18.09-6.04,24.05-9.69,2.76-1.69,4.82-3.34,6.03-4.79,.5-.59,.81-1.11,.95-1.5,.06-.19,.07-.24,.07-.24-.03-.1-.36-.41-1.3-.82-1.4-.6-3.51-1.03-6.16-1.22l.51-7.19c7.57,.54,12.67,2.72,13.92,7.36,2.42,9.04-13.96,19.08-36.2,25.05-22.24,5.96-41.45,5.45-43.87-3.59-1.28-4.77,2.26-9.33,8.92-13.69l3.95,6.03c-2.37,1.55-4.11,3.05-5.1,4.33-.4,.52-.65,.96-.75,1.29-.04,.14-.05,.18-.05,.18,0,0,.04,.05,.18,.17h0Z"/>
</svg>