<svg xmlns="http://www.w3.org/2000/svg" xmlns:xlink="http://www.w3.org/1999/xlink" width="32" height="32" viewBox="0 0 32 32" fill="none"><defs><linearGradient id="linear_0" x1="0%" y1="0.0007107123137693635%" x2="1%" y2="0.0007107123137693635%" gradientUnits="objectBoundingBox"><stop offset="0" stop-color="#000000" stop-opacity="100" /><stop offset="1" stop-color="#FFFFFF" stop-opacity="100" /></linearGradient></defs><g opacity="1" transform="translate(0 0)  rotate(0 16 16)"><path id="矩形 1" fill-rule="evenodd" transform="translate(0 0)  rotate(0 16 16)" opacity="1" d="M0,32L32,32L32,0L0,0L0,32Z " /><path id="分组 1" fill-rule="evenodd" fill="url(#linear_0)" transform="translate(4 12.083690741563032)  rotate(0 12 3.9163092584370474)" opacity="1" d="M11.9915 7.83331L13.5915 7.83331C13.6215 7.83331 13.6515 7.80331 13.6615 7.76331L13.6615 0.233314C13.6515 0.203314 13.6215 0.173314 13.5915 0.173314L11.9915 0.173314C11.9515 0.173314 11.9215 0.203314 11.9215 0.233314L11.9215 7.76331C11.9215 7.80331 11.9515 7.83331 11.9915 7.83331Z M0.218633 7.83256L1.81863 7.83256C1.84863 7.83256 1.87863 7.80256 1.88863 7.76256L1.88863 3.02256C1.87863 2.99256 1.84863 2.96256 1.81863 2.96256L0.218633 2.96256C0.178633 2.96256 0.148633 2.99256 0.148633 3.02256L0.148633 7.76256C0.148633 7.80256 0.178633 7.83256 0.218633 7.83256Z M9.03394 7.1L9.88394 7.82C9.89394 7.83 9.91394 7.83 9.93394 7.83C9.95394 7.83 9.96394 7.82 9.97394 7.8L10.8739 6.64C10.8939 6.61 10.8939 6.56 10.8639 6.54L10.0739 5.87C10.0539 5.86 10.0439 5.84 10.0439 5.82C10.0339 5.8 10.0439 5.77 10.0539 5.75C10.9339 4 10.4339 1.82 8.87394 0.69C7.31394 -0.44 5.19394 -0.16 3.94394 1.34C2.70394 2.83 2.71394 5.07 3.99394 6.55C5.26394 8.02 7.38394 8.26 8.92394 7.1C8.95394 7.08 9.00394 7.08 9.03394 7.1Z M8.85242 3.53114C8.64242 2.29114 7.52242 1.46114 6.36242 1.68114C5.20242 1.90114 4.43242 3.08114 4.65242 4.33114C4.86242 5.57114 5.98242 6.40114 7.14242 6.18114C8.30242 5.96114 9.07242 4.77114 8.85242 3.53114Z M22.3347 7.83141L23.9347 7.83141C23.9647 7.83141 23.9947 7.80141 24.0047 7.77141L24.0047 0.241413C23.9947 0.221413 23.9947 0.201413 23.9747 0.191413C23.9647 0.181413 23.9547 0.171413 23.9347 0.171413L22.3347 0.171413C22.2947 0.171413 22.2647 0.201413 22.2647 0.231413L22.2647 7.77141C22.2647 7.80141 22.2947 7.83141 22.3347 7.83141Z M0 1.09121C0 1.68121 0.46 2.15121 1.02 2.15121C1.58 2.15121 2.03 1.68121 2.03 1.09121C2.03 0.801211 1.93 0.531211 1.74 0.331211C1.55 0.131211 1.29 0.0212113 1.02 0.0212113C0.46 0.0212113 0 0.501211 0 1.09121Z M17.1545 4.92141L17.1545 7.75141C17.1545 7.80141 17.1845 7.83141 17.2245 7.83141L18.8345 7.83141C18.8745 7.83141 18.9045 7.80141 18.9045 7.75141L18.9045 4.92141C18.9045 4.87141 18.9145 4.82141 18.9445 4.77141L21.4845 0.291412C21.4945 0.271412 21.4945 0.241412 21.4845 0.211412C21.4745 0.181412 21.4445 0.171412 21.4145 0.171412L19.7145 0.171412C19.6845 0.171412 19.6545 0.191412 19.6445 0.211412L18.0545 3.17141C18.0545 3.17141 18.0445 3.19141 18.0245 3.19141C18.0145 3.19141 18.0045 3.17141 18.0045 3.17141L16.4145 0.211412C16.4045 0.191412 16.3745 0.171412 16.3445 0.171412L14.6345 0.171412C14.6145 0.171412 14.5845 0.191412 14.5745 0.211412C14.5645 0.241412 14.5645 0.271412 14.5745 0.291412L17.1145 4.77141C17.1445 4.82141 17.1545 4.87141 17.1545 4.92141Z " /></g></svg>