<svg xmlns="http://www.w3.org/2000/svg" xmlns:xlink="http://www.w3.org/1999/xlink" width="32" height="32" viewBox="0 0 32 32" fill="none"><g opacity="1" transform="translate(0 0)  rotate(0 16 16)"><path id="路径 1" fill-rule="evenodd" transform="translate(0 0)  rotate(0 16 16)" opacity="1" d="M0,32L32,32L32,0L0,0L0,32Z " /><path id="路径 2" fill-rule="evenodd" style="fill:#FFFFFF" transform="translate(7 6.709618250579524)  rotate(0 9 9.290381749420447)" opacity="1" d="M9.1,5.46C11.22,5.41 12.49,7.83 12.49,7.83L17.95,5.82C17.95,5.82 15.7,0 9.61,0C3.93,0 0,3.94 0,9.29C0,14.04 3.7,18.78 9.48,18.57C15.83,18.34 18,12.75 18,12.75L12.39,10.9C12.41,10.88 11.26,12.77 9.05,12.77L9.05,12.77C7.12,12.78 5.54,11.52 5.44,9.17C5.33,6.97 7.26,5.5 9.1,5.46Z " /></g></svg>