<?xml version="1.0" encoding="UTF-8"?>
<svg id="_图层_1" data-name="图层 1" xmlns="http://www.w3.org/2000/svg" viewBox="0 0 96 96">
  <defs>
    <style>
      .cls-1 {
        fill: #fff;
      }
    </style>
  </defs>
  <path class="cls-1" d="M16.15,26.2h8.25l.86-2.51h-4.88v-3.76h6.17l.69-2.05h-9.21v-3.9h27.26v3.9h-13.57l-.69,2.05h12.08v6.27h4.06v3.9H16.15v-3.9Zm27.63,5.61v11.19H19.55v-11.19h24.23Zm-4.29,7.23v-3.27h-15.65v3.27h15.65Zm-.63-12.84v-2.51h-9.11l-.86,2.51h9.97Z"/>
  <path class="cls-1" d="M67.9,40.75c-3.01,1.23-6.89,2.11-11.62,2.64v-3.73c2.99-.35,5.38-.78,7.16-1.28-1.85-1.32-3.37-2.91-4.55-4.75-1.23,3.17-2.71,6.37-4.42,9.61h-5.02c2.58-4.42,4.68-8.77,6.3-13.04h-3.04v-1.32h-2.91v-7.56h3.93l-.89-2.97h4.59l.89,2.97h4.59l-.89-2.97h4.56l.89,2.97h3.73l.92-3.3h4.49l-.92,3.3h3.83v7.56h-2.91v1.32h-16.44l-.49,1.39,.73-.03h14.16l3.47,.03c-1.34,2.82-3.24,5.08-5.68,6.8,1.78,.51,4.17,.93,7.16,1.28v3.73c-4.73-.53-8.61-1.41-11.62-2.64ZM51.37,14.15c5.79,0,10.63-.07,14.52-.21,3.9-.14,7.93-.41,12.11-.81v3.7c-4.03,.4-7.99,.67-11.9,.81-3.91,.14-8.82,.21-14.74,.21v-3.7Zm5.68,12.41l.5-1.52h-3.47v1.52h2.97Zm18.22,0v-1.52h-13.4c-.2,.57-.35,1.08-.46,1.52h13.86Zm-7.36,10.5c1.1-.59,2.11-1.32,3.04-2.18h-6.07c.92,.86,1.93,1.58,3.04,2.18Z"/>
  <path class="cls-1" d="M42.12,76.24l4.59,6.6h-4.52l-2.28-3.43c-.9,1.14-1.87,2.29-2.91,3.43h-5.15c2.13-2.16,4.04-4.36,5.71-6.6l-4.39-7.2h-.07c-.02,2.58-.22,4.96-.59,7.16-.37,2.2-.97,4.41-1.78,6.63h-4.52l.73-1.65h-9.08v-13.2h-1.72c.88-1.65,1.6-3.28,2.16-4.9,.56-1.62,1.02-3.34,1.37-5.17h-2.91v-4.29h11.35v4.29h-4.19c-.35,2.14-.86,4.2-1.52,6.21h4.98v15.81c.59-1.69,1.01-3.42,1.25-5.2,.24-1.77,.36-3.75,.36-5.93v-13.37h7.56v-2.77h4.13v2.77h6.08v6.54h-3.73v-2.58h-2.34v5.94h6.4c-1.12,3.85-2.78,7.48-4.99,10.89Zm-18.35,.76v-8.68h-2.28v8.68h2.28Zm12.81-11.65v-5.94h-3.47v5.94h3.47Zm3.27,7.56c.73-1.19,1.4-2.47,2.01-3.86h-4.36l2.34,3.86Z"/>
  <path class="cls-1" d="M50.87,70.46l-.03-8.35-1.02,.39v-4.06c1.78-1.19,3.07-2.96,3.86-5.31h10.76c-.44,2.26-1.09,4.34-1.95,6.21h2.01v5.21c1.69-2.37,2.78-4.8,3.27-7.26h-2.41v-3.96h13.57l-.23,11.42h-6.3v-3.8h2.38l.1-3.66h-3.07c-.39,2.73-1.33,5.21-2.8,7.46h-4.49v18.09h-3.7v-5.35h-1.62v5.38h-3.3v-5.38h-1.75c-.18,1.63-.48,3.41-.92,5.35h-4.06c1.14-3.81,1.72-7.93,1.72-12.38Zm5.28,3.33v-3.53h-1.62v.2c0,1.12-.03,2.23-.1,3.33h1.72Zm2.28-14.46c.44-.77,.8-1.54,1.09-2.31h-3.43c-.39,.79-.91,1.56-1.55,2.31h3.9Zm-2.28,7.23v-3.53h-1.62v3.53h1.62Zm4.65,0v-3.53h-1.62v3.53h1.62Zm0,7.23v-3.53h-1.62v3.53h1.62Zm5.18-8.05h3.5c0,.42-.02,1.02-.07,1.81h1.65v-2.47h4.09v2.47h4.19v3.83h-4.19v3.56h4.68v3.9h-4.68v3.99h-4.09v-3.99h-6.04v-3.9h6.04v-3.56h-2.08c-.16,.88-.35,1.78-.59,2.71h-3.76c.88-2.79,1.33-5.58,1.35-8.35Z"/>
</svg>