<?xml version="1.0" standalone="no"?><!DOCTYPE svg PUBLIC "-//W3C//DTD SVG 1.1//EN" "http://www.w3.org/Graphics/SVG/1.1/DTD/svg11.dtd"><svg t="1672312834126" class="icon" viewBox="0 0 1024 1024" version="1.1" xmlns="http://www.w3.org/2000/svg" p-id="3379" xmlns:xlink="http://www.w3.org/1999/xlink" width="200" height="200"><path d="M719.83 408H306.17c-10.75 0-21.22 1.18-31.34 3.34V260.71l-0.11-2.82c-0.03-0.39-1.91-39.71 20.25-63.61 13.01-14.02 32.56-20.84 59.77-20.84 21.52 0 28.3 0.04 39.49 0.1 22.43 0.12 64.14 0.35 285.64 0.57 11.98 1.12 76.01 10.19 76.01 75.63v87.75c0 20.77 16.84 37.61 37.61 37.61s37.61-16.84 37.61-37.61v-87.75c0-110.67-96.08-147-146.88-150.75l-2.73-0.1c-222.68-0.22-264.42-0.45-286.84-0.56-11.3-0.06-18.16-0.1-39.9-0.1-48.61 0-87.28 15.11-114.92 44.91-41.84 45.11-40.9 106.15-40.21 118.75v190.49c-27.09 27.22-43.87 64.71-43.87 106.06v219.37c0 82.94 67.48 150.43 150.43 150.43h413.66c82.94 0 150.42-67.48 150.42-150.43V558.43c0-82.95-67.48-150.43-150.43-150.43z m75.21 369.79c0 41.47-33.74 75.21-75.21 75.21H306.17c-41.47 0-75.21-33.74-75.21-75.21V558.43c0-41.47 33.74-75.21 75.21-75.21h413.66c41.47 0 75.21 33.74 75.21 75.21v219.36z" fill="#d81e06" p-id="3380"></path><path d="M518.09 553.73c-64.15 0-116.34 52.2-116.34 116.34s52.19 116.34 116.34 116.34 116.34-52.2 116.34-116.34-52.19-116.34-116.34-116.34z m0 157.47c-22.68 0-41.13-18.45-41.13-41.13s18.45-41.13 41.13-41.13c22.68 0 41.13 18.45 41.13 41.13s-18.45 41.13-41.13 41.13z" fill="#d81e06" p-id="3381"></path></svg>