<svg xmlns="http://www.w3.org/2000/svg" xmlns:xlink="http://www.w3.org/1999/xlink" width="30" height="30" viewBox="0 0 30 30" fill="none"><defs><rect id="path_0" x="0" y="0" width="30" height="30" /></defs><g opacity="1" transform="translate(0 0)  rotate(0 15 15)"><mask id="bg-mask" fill="white"><use xlink:href="#path_0"></use></mask><g mask="url(#bg-mask)" ><path id="路径 1" fill-rule="evenodd"   transform="translate(0 0)  rotate(0 15 15)" opacity="1" d="M0,30L30,30L30,0L0,0L0,30Z " /><g opacity="1" transform="translate(4.500000000000044 4.499999999999982)  rotate(0 10.5 10.5)"><path id="路径 2" fill-rule="evenodd" style="fill:#FFFFFF" transform="translate(11.852839193410293 0)  rotate(0 4.573580403294853 10.330946349305876)" opacity="1" d="M8.84,1.95C9.31,0.65 9.31,0.63 8.34,0.33C7.3,0 5.31,-0.11 4.51,0.12C3.14,0.52 2.28,1.35 1.88,2.73C1.71,3.29 1.67,3.83 1.69,5.19L1.71,6.94L0,6.94L0,9.88L1.73,9.88L1.7,15.24L1.65,20.6L3.71,20.64L5.77,20.66L5.72,15.27L5.67,9.88L8.31,9.88L8.31,6.94L7.03,6.94C5.75,6.94 5.74,6.94 5.67,6.63C5.62,6.45 5.62,5.78 5.64,5.13C5.7,3.91 5.91,3.25 6.29,3.1C6.63,2.98 7.27,3.01 7.81,3.21C8.39,3.4 8.26,3.56 8.84,1.95Z " /><path id="路径 3" fill-rule="evenodd" style="fill:#FFFFFF" transform="translate(0 6.620430429404782)  rotate(0 5.222826402575768 7.189784785297609)" opacity="1" d="M0.65,13.11C3.35,14.82 7.29,14.8 9.21,13.05C10.15,12.19 10.45,11.48 10.45,10C10.45,9.07 10.4,8.73 10.19,8.29C9.7,7.23 8.65,6.47 6.62,5.73C5.3,5.24 4.68,4.9 4.52,4.62C4.31,4.23 4.37,3.53 4.63,3.28C5.25,2.65 6.84,2.69 8.17,3.35C8.43,3.47 8.69,3.6 8.94,3.73C9.07,3.79 10.14,1.61 10.14,1.32C10.14,1.05 9.35,0.62 8.19,0.26C7.29,-0.02 4.69,-0.09 3.82,0.13C1.56,0.7 0.42,2.1 0.44,4.27C0.46,6.31 1.59,7.45 4.88,8.73C6.02,9.17 6.48,9.6 6.48,10.27C6.48,11.24 5.35,11.86 4.07,11.6C3.34,11.46 2.35,10.98 1.7,10.48C1.36,10.21 1.22,10.16 1.14,10.28C0.86,10.64 0,12.31 0,12.5C0,12.61 0.29,12.88 0.65,13.11Z " /></g></g></g></svg>