<?xml version="1.0" encoding="UTF-8"?>
<svg id="_图层_1" data-name="图层 1" xmlns="http://www.w3.org/2000/svg" viewBox="0 0 96 96">
  <defs>
    <style>
      .cls-1 {
        fill: #fff;
      }
    </style>
  </defs>
  <path class="cls-1" d="M61.52,35.71c.88,0,1.74,.06,2.6,.16-2.34-10.89-13.99-18.99-27.28-18.99-14.86,0-27.04,10.13-27.04,23,0,7.43,4.05,13.52,10.82,18.25l-2.7,8.13,9.45-4.74c3.38,.67,6.1,1.36,9.47,1.36,.85,0,1.69-.04,2.52-.11-.53-1.81-.83-3.7-.83-5.67,0-11.81,10.14-21.4,22.99-21.4h0Zm-14.54-7.33c2.04,0,3.38,1.34,3.38,3.37s-1.35,3.38-3.38,3.38-4.06-1.36-4.06-3.38,2.03-3.37,4.06-3.37Zm-18.92,6.76c-2.03,0-4.07-1.36-4.07-3.38s2.05-3.37,4.07-3.37,3.38,1.34,3.38,3.37-1.35,3.38-3.38,3.38Zm58.14,21.65c0-10.81-10.82-19.62-22.97-19.62-12.87,0-23,8.81-23,19.62s10.13,19.62,23,19.62c2.69,0,5.41-.68,8.11-1.36l7.42,4.06-2.03-6.76c5.43-4.07,9.47-9.47,9.47-15.57h0Zm-30.42-3.38c-1.35,0-2.7-1.34-2.7-2.71s1.36-2.7,2.7-2.7c2.05,0,3.38,1.36,3.38,2.7s-1.34,2.71-3.38,2.71Zm14.87,0c-1.34,0-2.69-1.34-2.69-2.71s1.35-2.7,2.69-2.7c2.03,0,3.38,1.36,3.38,2.7,0,1.37-1.36,2.71-3.38,2.71Z"/>
</svg>