<?xml version="1.0" encoding="UTF-8"?>
<svg id="_图层_1" data-name="图层 1" xmlns="http://www.w3.org/2000/svg" viewBox="0 0 96 96">
  <defs>
    <style>
      .cls-1 {
        fill: #db1633;
      }

      .cls-2 {
        fill: #3c89e5;
      }
    </style>
  </defs>
  <path class="cls-1" d="M47.7,34.5c-2.08-1.42-4.92-.88-6.35,1.2-1.07,1.57-1.06,3.63,.03,5.19l6.87,6.87-6.87,6.87c-1.79,1.79-1.79,4.7,0,6.49s4.7,1.79,6.49,0h0l9.58-9.92c.89-.91,1.37-2.16,1.3-3.43,.06-1.28-.41-2.52-1.3-3.43l-9.75-9.82Z"/>
  <path class="cls-2" d="M48.25,13.42c-18.96,0-34.33,15.37-34.33,34.33s15.37,34.33,34.33,34.33,34.33-15.37,34.33-34.33S67.21,13.42,48.25,13.42Zm0,59.5c-13.9,0-25.17-11.27-25.17-25.17,0-13.9,11.27-25.17,25.17-25.17,13.9,0,25.17,11.27,25.17,25.17s-11.27,25.17-25.17,25.17h0Z"/>
</svg>