<?xml version="1.0" encoding="utf-8"?>
<!-- Generator: Adobe Illustrator 26.4.1, SVG Export Plug-In . SVG Version: 6.00 Build 0)  -->
<svg version="1.1" id="图层_1" xmlns="http://www.w3.org/2000/svg" xmlns:xlink="http://www.w3.org/1999/xlink" x="0px" y="0px"
	 viewBox="0 0 96 96" style="enable-background:new 0 0 96 96;" xml:space="preserve">
<style type="text/css">
	.st0{fill:#FFFFFF;}
	.st1{fill:#1490FF;}
</style>
<g>
	<rect x="72.1" y="27.9" class="st0" width="18.1" height="18.1"/>
	<rect x="50" y="27.9" class="st0" width="18.1" height="18.1"/>
	<rect x="26.9" y="50" class="st0" width="19.1" height="19.1"/>
	<rect x="26.9" y="73.1" class="st0" width="19.1" height="17.1"/>
	<rect x="50" y="50" class="st0" width="18.1" height="19.1"/>
	<path class="st0" d="M22.9,5.9h-4.3c-7,0-12.8,5.7-12.8,12.8v5.3h17.1V5.9z"/>
	<rect x="26.9" y="27.9" class="st0" width="19.1" height="18.1"/>
	<rect x="26.9" y="5.9" class="st0" width="19.1" height="18.1"/>
	<rect x="22.9" y="5.9" class="st0" width="4" height="18.1"/>
</g>
<path class="st1" d="M77.4,1.9H18.6C9.4,1.9,1.9,9.4,1.9,18.6v58.7c0,9.3,7.5,16.8,16.8,16.8h58.7c9.3,0,16.8-7.5,16.8-16.8V18.6
	C94.1,9.4,86.6,1.9,77.4,1.9z M18.6,5.9h4.3h4H46v18.1H26.9h-4H5.9v-5.3C5.9,11.6,11.6,5.9,18.6,5.9z M90.1,46H72.1V27.9h18.1V46z
	 M68.1,46H50V27.9h18.1V46z M68.1,69.1H50V50h18.1V69.1z M46,46H26.9V27.9H46V46z M26.9,50H46v19.1H26.9V50z M26.9,73.1H46v17.1
	H26.9V73.1z"/>
</svg>
