<?xml version="1.0" encoding="utf-8"?>
<!-- Generator: Adobe Illustrator 25.3.1, SVG Export Plug-In . SVG Version: 6.00 Build 0)  -->
<svg version="1.1" id="图层_1" xmlns="http://www.w3.org/2000/svg" xmlns:xlink="http://www.w3.org/1999/xlink" x="0px" y="0px"
	 viewBox="0 0 168 88" style="enable-background:new 0 0 168 88;" xml:space="preserve">
<style type="text/css">
	.st0{fill:#1890FF;}
</style>
<path class="st0" d="M80.3,21.4L76.8,0L16.3,1.2L0,86.3L20.9,88c3.7-22.5,7.4-45.1,11.1-67.6L80.3,21.4z"/>
<path class="st0" d="M41.1,35.4c-1.6,4.4-3.1,8.9-4.7,13.3l26.2,4.7L56.1,87l38.6-10.4l2.1-15.2l-21.5,4.9l7-24.7L41.1,35.4z"/>
<path class="st0" d="M101.8,38.1c0.3,16.7,0.5,33.3,0.8,49.9H120c-0.4-16.7-0.8-33.3-1.2-49.9H101.8z"/>
<path class="st0" d="M125.4,38.7l0.8,13.2l23.1-1.6c-1.9,12.5-3.8,24.9-5.7,37.4h16.3c2.7-17.5,5.4-35,8.1-52.5L125.4,38.7z"/>
</svg>
