<?xml version="1.0" standalone="no"?><!DOCTYPE svg PUBLIC "-//W3C//DTD SVG 1.1//EN" "http://www.w3.org/Graphics/SVG/1.1/DTD/svg11.dtd"><svg t="1683629702640" class="icon" viewBox="0 0 1024 1024" version="1.1" xmlns="http://www.w3.org/2000/svg" p-id="15501" xmlns:xlink="http://www.w3.org/1999/xlink" width="200" height="200"><path d="M672.034816 634.88c-48.7424-37.2736-63.488-125.5424-81.92-179.8144a949.0432 949.0432 0 0 0-66.7648-150.1184L22.204416 538.0096s65.1264 188.8256 186.7776 286.72c180.6336 144.9984 369.8688 135.3728 499.712 79.6672 112.64-48.3328 183.0912-173.8752 227.5328-234.2912s80.6912-108.7488 86.8352-181.6576c9.0112-108.7488-30.1056-134.5536-43.2128-118.784s-24.576 96.8704-59.1872 104.6528c-23.552 5.3248-18.6368-31.744-45.2608-45.2608-37.2736-19.0464 0 65.3312-2.8672 109.568-7.168 121.4464-120.6272 157.696-200.4992 96.256z" fill="#ED4A4A" p-id="15502"></path><path d="M947.695616 547.84c29.4912-45.8752 23.3472-105.0624 15.9744-139.264a268.4928 268.4928 0 0 1-15.9744 39.3216 536.9856 536.9856 0 0 1 0 99.9424zM899.362816 458.752c8.6016 61.44 31.5392 81.92 31.5392 81.92a325.632 325.632 0 0 1-8.8064-66.9696c-12.9024 2.8672-17.6128-4.9152-22.7328-14.9504zM272.674816 788.2752c-109.7728-88.064-173.2608-249.856-184.32-280.9856l-66.1504 30.72s65.1264 188.8256 186.7776 286.72c180.6336 144.9984 369.8688 135.3728 499.712 79.6672a293.4784 293.4784 0 0 0 59.1872-34.6112c-129.6384 54.0672-316.8256 61.8496-495.2064-81.5104z" fill="#DD3333" p-id="15503"></path><path d="M171.298816 532.48s-39.3216 112.0256-5.12 148.6848 63.2832-40.96 102.4-45.6704 72.4992 53.6576 119.6032 38.7072c52.0192-16.384 24.576-87.04 51.2-104.448s56.1152 27.0336 86.2208-7.5776c34.6112-39.7312-86.2208-119.1936-86.2208-119.1936z" fill="#FFDA71" p-id="15504"></path><path d="M2.543616 367.4112a372.736 372.736 0 0 0 20.48 172.4416s122.88 61.44 293.888 2.048A303.3088 303.3088 0 0 0 525.398016 307.2S405.180416 86.6304 214.511616 107.3152C112.930816 118.3744 18.518016 207.4624 2.543616 367.4112z" fill="#F46262" p-id="15505"></path><path d="M69.513216 386.4576C68.284416 250.88 123.375616 156.4672 198.946816 109.7728 102.895616 127.7952 17.698816 215.6544 2.543616 367.4112a372.736 372.736 0 0 0 20.48 172.4416 313.1392 313.1392 0 0 0 84.992 23.3472 419.6352 419.6352 0 0 1-38.5024-176.7424z" fill="#ED4A4A" p-id="15506"></path><path d="M61.935616 133.7344c16.384-22.9376 45.8752 27.0336 89.4976 9.6256s20.48-56.32 42.3936-61.44c32.1536-7.7824 40.96 69.4272-23.1424 102.4C110.268416 215.8592 37.974016 166.5024 61.935616 133.7344zM264.278016 328.9088a51.4048 51.4048 0 1 1 51.2-51.4048 51.4048 51.4048 0 0 1-51.2 51.4048z m0-81.92a30.9248 30.9248 0 1 0 30.72 30.9248 30.9248 30.9248 0 0 0-30.72-32.1536zM206.319616 813.056c14.7456-8.8064 92.3648 26.2144 136.3968 78.848 25.6 30.5152 1.6384 35.6352-12.4928 26.0096-7.168-4.9152-26.8288-31.1296-39.1168-30.3104s26.4192 30.5152 23.3472 36.0448-40.96-6.9632-70.8608-35.84-54.8864-64.3072-37.2736-74.752z" fill="#FFDA71" p-id="15507"></path><path d="M577.007616 702.8736a91.7504 91.7504 0 0 0 71.8848-29.4912A102.4 102.4 0 0 0 671.625216 634.88a117.5552 117.5552 0 0 1-24.9856-27.4432 81.92 81.92 0 0 1-20.48 45.4656 61.44 61.44 0 0 1-60.0064 18.2272 15.36 15.36 0 0 0-20.48 15.36c0 16.1792-2.048 61.44-23.1424 81.92a72.704 72.704 0 0 1-66.1504 17.6128 15.36 15.36 0 1 0-9.0112 29.2864 93.3888 93.3888 0 0 0 25.6 3.2768 102.4 102.4 0 0 0 70.2464-27.4432 132.5056 132.5056 0 0 0 33.792-88.2688zM722.620416 659.456a65.7408 65.7408 0 0 1-3.8912 40.96 47.7184 47.7184 0 0 1-39.936 27.648 15.36 15.36 0 0 0-14.336 20.48c4.5056 12.0832 13.5168 47.7184 2.2528 66.9696a56.9344 56.9344 0 0 1-45.056 28.672 15.36 15.36 0 0 0 0 30.72 87.8592 87.8592 0 0 0 71.2704-43.8272 107.7248 107.7248 0 0 0 5.12-75.776 77.824 77.824 0 0 0 48.128-40.96 91.5456 91.5456 0 0 0 7.7824-49.5616 126.7712 126.7712 0 0 1-31.3344-5.3248z" fill="#DD3333" p-id="15508"></path></svg>