<?xml version="1.0" standalone="no"?><!DOCTYPE svg PUBLIC "-//W3C//DTD SVG 1.1//EN" "http://www.w3.org/Graphics/SVG/1.1/DTD/svg11.dtd"><svg t="1683630865753" class="icon" viewBox="0 0 1024 1024" version="1.1" xmlns="http://www.w3.org/2000/svg" p-id="29650" xmlns:xlink="http://www.w3.org/1999/xlink" width="200" height="200"><path d="M556.69333333 152.74666667c2.45333333-17.70666667-11.30666667-33.38666667-29.12-33.38666667-17.81333333 0-31.57333333 15.78666667-29.12 33.38666667l29.12 209.06666666 29.12-209.06666666zM204.26666667 349.01333333l195.62666666 79.36-166.50666666-129.81333333c-14.08-10.98666667-34.56-6.93333333-43.52 8.53333333-8.85333333 15.46666667-2.13333333 35.2 14.4 41.92zM198.08 651.41333333c-16.53333333 6.72-23.36 26.45333333-14.4 41.92 8.96 15.46666667 29.44 19.41333333 43.52 8.53333334l166.50666667-129.70666667-195.62666667 79.25333333zM485.97333333 858.45333333c-2.45333333 17.70666667 11.30666667 33.38666667 29.12 33.38666667 17.81333333 0 31.57333333-15.78666667 29.12-33.38666667l-29.12-209.06666666-29.12 209.06666666zM838.29333333 662.29333333l-195.62666666-79.36 166.50666666 129.70666667c14.08 10.98666667 34.56 6.93333333 43.52-8.53333333 8.96-15.36 2.13333333-35.09333333-14.4-41.81333334zM844.58666667 359.78666667c16.53333333-6.72 23.36-26.45333333 14.4-41.92-8.96-15.46666667-29.44-19.41333333-43.52-8.53333334L648.96 439.14666667l195.62666667-79.36zM473.6 413.97333333l-56.96-140.48c-4.8-11.84-18.98666667-16.74666667-30.08-10.34666666-11.09333333 6.4-13.97333333 21.12-6.08 31.25333333L473.6 413.97333333zM243.94666667 501.12c0 12.8 11.30666667 22.61333333 24 20.90666667L418.13333333 501.12l-150.08-20.90666667c-12.8-1.70666667-24.10666667 8.10666667-24.10666666 20.90666667zM378.77333333 743.57333333c11.09333333 6.4 25.28 1.49333333 30.08-10.34666666l56.96-140.48-93.12 119.57333333c-7.89333333 10.13333333-5.01333333 24.85333333 6.08 31.25333333zM569.06666667 597.22666667l56.96 140.48c4.8 11.84 18.98666667 16.74666667 30.08 10.34666666 11.09333333-6.4 13.97333333-21.12 6.08-31.25333333l-93.12-119.57333333zM624.53333333 510.08l150.08 20.90666667c12.69333333 1.81333333 24-8.10666667 24-20.90666667 0-12.8-11.30666667-22.61333333-24-20.90666667l-150.08 20.90666667zM663.89333333 267.62666667c-11.09333333-6.4-25.28-1.49333333-30.08 10.34666666l-56.96 140.48 93.12-119.57333333c7.89333333-10.02666667 5.01333333-24.85333333-6.08-31.25333333zM588.58666667 490.56l-46.50666667-6.82666667-20.8-42.13333333-20.8 42.13333333-46.4 6.82666667 33.6 32.74666667-8 46.29333333 41.6-21.86666667 41.6 21.86666667-7.89333333-46.29333333zM279.14666667 759.68l-10.34666667-21.01333333-10.45333333 21.01333333-23.25333334 3.41333333 16.85333334 16.42666667-3.94666667 23.14666667 20.8-10.98666667 20.8 10.98666667-4.05333333-23.14666667 16.85333333-16.42666667z" fill="#FF3333" p-id="29651"></path></svg>