<?xml version="1.0" standalone="no"?><!DOCTYPE svg PUBLIC "-//W3C//DTD SVG 1.1//EN" "http://www.w3.org/Graphics/SVG/1.1/DTD/svg11.dtd"><svg t="1683630337349" class="icon" viewBox="0 0 1024 1024" version="1.1" xmlns="http://www.w3.org/2000/svg" p-id="15671" xmlns:xlink="http://www.w3.org/1999/xlink" width="200" height="200"><path d="M376.7 257.4c9.5 23.5 19.8 59.3 12.4 96.9-13.8 69.8-79.7 99-104.8 108.4l-8-3.6c-9.6-25-31.5-93.7 11.7-150.3 23.2-30.5 56.9-46.5 80.7-54.9M504.5 473.2c9.5 23.5 19.8 59.3 12.4 96.9-13.8 69.8-79.7 99-104.8 108.4l-8-3.6c-9.6-25-31.5-93.7 11.7-150.3 23.2-30.5 56.9-46.5 80.7-54.9M596.9 690.3c8.3 23.9 16.8 60.2 7.5 97.4-17.3 69.1-84.5 94.8-110.1 103l-7.8-4c-8.3-25.5-26.7-95.1 19.2-149.5 24.7-29.3 59.1-43.6 83.4-50.8M425.7 277c14.7 20.6 39.4 48.5 75.1 62.5 66.3 25.9 126.3-14.1 147.7-30.2l1.3-8.7c-16-21.5-62.1-76.8-133.1-70.9-38.2 3.2-69.8 23-89.7 38.6M542 486.7c13.2 21.6 35.9 51.2 70.5 67.6 64.3 30.5 126.9-5.1 149.4-19.7l1.9-8.6c-14.4-22.6-56.5-81-127.7-80.1-38.3 0.5-71.2 18-92.2 32.2M624.4 711.7c5.6 24.7 17.5 60 45 86.7 51.1 49.6 121.8 36 147.8 29.4l4.6-7.6c-6.4-26.1-27.4-94.9-95.2-116.9-36.4-11.8-73.2-5.8-97.7 0.8" fill="#C6EFA5" p-id="15672"></path><path d="M588.5 948.2c-10.2 0-19-7.8-19.9-18.2-6.8-76.8-20.2-153.3-39.9-227.4-27-101.9-66.1-200.1-116.1-292-59.8-110-135.2-211.1-224.2-300.5-7.8-7.8-7.8-20.5 0.1-28.3 7.8-7.8 20.5-7.8 28.3 0.1 91.6 92.1 169.3 196.3 230.9 309.6 51.5 94.7 91.8 195.9 119.6 300.9 20.3 76.3 34.1 155.1 41.1 234.1 1 11-7.2 20.7-18.2 21.7h-1.7z" fill="#7DC453" p-id="15673"></path><path d="M223.4 482.6c-2.8 0-5.6-0.6-8.2-1.8l-8-3.6c-4.8-2.2-8.6-6.1-10.5-11.1-9.1-23.6-14.2-47-15.3-69.5-1.8-38.2 8.2-71.9 29.7-100 20.6-27.1 50.9-47.8 90-61.7 6.6-2.3 13.5-1 18.7 2.9 6.3 1.3 11.9 5.6 14.6 12.1 15.5 38.4 20.1 74.8 13.5 108.2-6.9 34.8-25.5 64.6-55.2 88.5-17.5 14.1-38.5 25.8-62.2 34.7-2.4 0.9-4.8 1.3-7.1 1.3z m78.5-205.1c-25.5 10.8-45.3 25.4-59 43.3-13.7 18-32.7 56.5-13.5 117.7 58.6-26.3 74.8-65.9 79.2-88.2 4.3-22.1 2.1-46.5-6.7-72.8zM351.2 698.4c-2.8 0-5.6-0.6-8.2-1.8l-8-3.6c-4.8-2.2-8.6-6.1-10.5-11.1-9.1-23.6-14.2-47-15.3-69.5-1.8-38.2 8.2-71.9 29.7-100 20.6-27.1 50.9-47.8 90-61.7 6.6-2.3 13.5-1 18.7 2.9 6.3 1.3 11.9 5.6 14.6 12.1 15.5 38.4 20.1 74.8 13.5 108.2-6.9 34.8-25.5 64.6-55.2 88.5-17.5 14.1-38.5 25.8-62.2 34.7-2.3 0.9-4.7 1.3-7.1 1.3z m78.6-205.1c-25.5 10.8-45.3 25.4-59 43.3-13.7 18-32.7 56.5-13.5 117.7 58.6-26.3 74.8-65.9 79.2-88.2 4.3-22 2-46.5-6.7-72.8zM433.4 910.6c-3.1 0-6.3-0.7-9.1-2.2l-7.8-4c-4.7-2.4-8.3-6.6-9.9-11.6-12.5-38.1-26.1-110.6 22.9-168.6 22-26 53.2-45.2 92.9-57.1 6.7-2 13.6-0.3 18.5 3.8 6.3 1.6 11.6 6.2 13.9 12.8 13.6 39.2 16.3 75.7 8 108.8-8.6 34.4-28.7 63.2-59.6 85.7-18.2 13.2-39.7 23.8-63.8 31.5-1.9 0.6-3.9 0.9-6 0.9z m87.8-200.9c-26 9.6-46.5 23.1-61.1 40.3-14.6 17.3-35.5 54.7-19.4 116.9 59.8-23.3 78-62.1 83.5-84.1 5.4-21.9 4.4-46.5-3-73.1z" fill="#7DC453" p-id="15674"></path><path d="M485 368c-17.9 0-35.4-3.3-52.3-9.9-31.7-12.4-60-35.7-84.1-69.5-4-5.7-4.7-12.7-2.4-18.8-0.5-6.5 2.1-13 7.6-17.3 32.6-25.5 66.4-39.9 100.3-42.8 35.3-3 69.1 6.7 100.3 28.7 18.4 13 35.4 29.9 50.5 50.2 3.1 4.2 4.5 9.5 3.7 14.8l-1.3 8.7c-0.8 5.2-3.5 9.9-7.8 13.1-20.2 15.2-41.3 26.6-62.6 33.8-17.5 6-34.9 9-51.9 9z m-95.7-91.9c17.5 21.5 36.9 36.5 57.9 44.7 21.1 8.2 63.3 15.9 116.9-19.4-41.4-49.1-84-53.7-106.6-51.8-22.5 1.9-45.4 10.8-68.2 26.5zM604.9 586.3c-21.6 0-42.3-4.7-61.9-13.9-30.8-14.6-57.3-39.9-79-75.2-3.6-5.9-3.8-13-1.1-18.9 0-6.5 3.1-12.9 8.8-16.7 34.4-23.1 69.1-35.1 103.1-35.6 35.4-0.5 68.4 11.5 98.1 35.7 17.5 14.2 33.2 32.3 46.8 53.6 2.8 4.5 3.8 9.8 2.7 15l-1.9 8.6c-1.1 5.2-4.2 9.7-8.7 12.5-21.2 13.8-43.1 23.6-64.9 29.3-14.2 3.7-28.3 5.6-42 5.6z m-99.4-98.8c15.9 22.7 34.2 39.1 54.6 48.7 20.5 9.7 62 20.3 118-11.1-37.8-51.9-80-59.5-102.7-59.2-22.5 0.3-46 7.5-69.9 21.6zM704.5 854.6c-4.8 0-9.5-0.2-14.1-0.5-38.1-2.8-70.4-16.7-95.8-41.4-24.4-23.7-41.4-56.2-50.6-96.7-1.5-6.8 0.6-13.6 5.1-18.2 2-6.1 7-11.2 13.7-13 40-10.9 76.7-11 109.1-0.5 33.7 10.9 61.1 32.9 81.4 65.4 11.9 19.1 21 41.2 27 65.9 1.2 5.1 0.4 10.5-2.3 15.1l-4.5 7.6c-2.7 4.5-7.1 7.8-12.2 9.1-19.5 4.7-38.5 7.2-56.8 7.2zM586.4 720.3c7.7 26.6 19.8 48 36 63.7 16.3 15.8 52.2 39.2 115.3 27.4-19.1-61.3-56.6-82.1-78.1-89.1-21.5-6.9-46.1-7.6-73.2-2z" fill="#7DC453" p-id="15675"></path></svg>